<svg width="17" height="16" viewBox="0 0 17 16" fill="none" xmlns="http://www.w3.org/2000/svg">
<path d="M12.8917 3.21524C13.1355 3.21524 13.2981 3.37781 13.2981 3.62166C13.2981 3.86551 13.1355 4.02808 12.8917 4.02808C11.5099 4.02808 11.3473 4.92219 11.1847 5.81631C10.9409 7.03557 10.697 8.33613 8.42107 8.49869H8.33979C7.03925 8.57998 6.87668 9.3928 6.71411 10.2869C6.47026 11.5062 6.2264 12.8067 3.95046 12.9693C3.7066 12.9693 3.54404 12.8067 3.54404 12.5629C3.54404 12.319 3.7066 12.1565 3.95046 12.1565C5.57613 12.0752 5.81998 11.0185 5.98255 10.1244C6.2264 8.90511 6.47026 7.76714 8.42107 7.68586C10.0467 7.60457 10.2906 6.54788 10.4532 5.65376C10.697 4.4345 10.9409 3.29653 12.8917 3.21524ZM15.8179 4.51576C15.9805 5.65374 15.9805 6.79172 15.7366 7.84841C15.3302 9.71794 14.3548 11.4249 12.973 12.8067C11.5911 14.1073 9.88418 15.0827 8.01465 15.4078C6.95796 15.5704 5.90127 15.6517 4.76329 15.4078C3.86917 16.0581 2.89377 16.1394 2.16221 15.8142C1.75579 15.6517 1.43066 15.4891 1.18681 15.2452C0.942957 15.0014 0.699103 14.6762 0.536536 14.2698C0.292684 13.5383 0.373973 12.5629 1.02424 11.6688C0.780392 10.6121 0.861676 9.4741 1.02424 8.41741C1.34938 6.54788 2.32478 4.84091 3.62533 3.45908C4.92587 2.07726 6.63283 1.10186 8.58365 0.695437C9.64034 0.451586 10.7783 0.451581 11.9163 0.614149C12.8104 -0.0361225 13.7858 -0.117411 14.5986 0.12644C15.0051 0.289008 15.3302 0.451586 15.5741 0.695437C15.8179 0.939289 16.0618 1.26441 16.143 1.67083C16.5495 2.64624 16.4682 3.62164 15.8179 4.51576ZM5.65742 14.7575C6.47026 14.8388 7.20182 14.7575 7.93337 14.6762C9.64033 14.3511 11.1847 13.457 12.4853 12.2377C13.7045 11.0185 14.5986 9.4741 15.0051 7.68586C15.1676 6.87302 15.2489 6.14144 15.1676 5.3286L5.65742 14.7575ZM11.266 1.42699C10.4532 1.3457 9.64033 1.427 8.90878 1.58956C7.20182 1.9147 5.57613 2.89009 4.35687 4.10934C3.13762 5.3286 2.24349 6.95429 1.91836 8.66125C1.75579 9.3928 1.7558 10.2057 1.83708 10.9372L11.266 1.42699ZM4.84458 14.3511L14.7612 4.4345C15.5741 3.62166 15.7366 2.72752 15.5741 2.07725C15.4928 1.8334 15.3302 1.58955 15.1676 1.42699C15.0051 1.26442 14.7612 1.10185 14.5174 1.02057C13.8671 0.776716 12.973 0.939279 12.1601 1.75212L2.2435 11.6688C1.43066 12.4816 1.26809 13.2944 1.51194 13.9447C1.59322 14.1886 1.75579 14.4324 1.91836 14.595C2.08093 14.7576 2.32478 14.9201 2.56863 15.0014C3.13762 15.3265 4.03174 15.164 4.84458 14.3511Z" fill="white"/>
</svg>
