<?xml version="1.0" encoding="utf-8"?>
<!-- Generator: Adobe Illustrator 24.2.3, SVG Export Plug-In . SVG Version: 6.00 Build 0)  -->
<svg version="1.1" id="Laag_1" xmlns="http://www.w3.org/2000/svg" xmlns:xlink="http://www.w3.org/1999/xlink" x="0px" y="0px"
	 viewBox="0 0 512 512" style="enable-background:new 0 0 512 512;" xml:space="preserve">
<path id="Shape" d="M30.2,468.2c41.7,26.1,114.2,37.4,163.4,41.3c80.5,6.5,220.6,1,288.2-41.3c2.6-1.6,4.1-4.6,4-7.6
	c-0.1-3.1-2-5.8-4.7-7.2c-7.6-3.8-29.6-15.8-40-21.8c-57.2-33.3-45.2-0.4-108.2-59.7v-49.6c16.3-15.5,25.7-28.9,26.8-52.6
	c17.7-9,29.7-26.3,31.7-46.1c1.7-8.5,5.2-31.6-2.6-44.5c26.7-56.2,10.3-128-50-135.3C330.4,32.1,302,0,245,0
	c-66.9,0-125.5,55.5-125.5,118.6c0.2,18.6,3.3,37.1,9,54.8c-14.2,10-9.7,40.2-7.8,50.1c2,19.7,14,37.1,31.7,46.1
	c1,23.6,10.4,37,26.8,52.6v49.6c-12.1,11.9-25.3,22.6-39.3,32.2c-7.1,4.2-14.8,7.2-22.8,8.9c-24.7,4.4-38.4,15-82.2,38.4
	c-3.7,1.9-8.4,3.4-8.7,9.3C26,463.6,27.6,466.6,30.2,468.2L30.2,468.2z M432.5,446.3c8.8,5,17.7,9.9,26.7,14.8
	c-33.9,14.2-69.6,23.5-106.1,27.6c14.9-17.6,24.8-39,28.5-61.8C396.4,431.9,403.2,429.2,432.5,446.3L432.5,446.3z M374.5,220.6
	c-0.1,0.3-0.1,0.7-0.1,1c-1.2,11-6.6,21.1-15.1,28.2c-1-11.2-0.2-22.6,2.5-33.6c0.2-0.7,0.3-1.5,0.3-2.2c0-7.8-0.2-14.1-0.4-18.8
	c0.3-2.4,2-7.6,11.1-7.6c0.3,0,1,0.1,1.5,0.1C376.8,191.1,377.4,206,374.5,220.6L374.5,220.6z M245,17.1c57.9,0,80.8,37.7,81.7,39.3
	c1.5,2.6,4.3,4.3,7.4,4.3h2.3c1.9,0.1,47.6,3.4,47.6,65.7c-0.1,15.4-3.6,30.5-10.1,44.4c-0.6,0-1.1,0-1.7,0c-4.2,0-8.4,0.8-12.3,2.5
	c-7.6-67.4-32.6-83.3-35.6-84.9c-4-2.2-9-0.9-11.4,3c-22.5,36.7-76.5,42-76.3,42h-44.5c-26.4,0-42.7,12.9-43.7,34.4
	c-0.1,1.3-0.1,2.7-0.1,4.3c-0.8-0.3-1.7-0.5-2.6-0.7c-5.9-16.9-9-34.7-9.2-52.6C136.5,65.5,188.2,17.1,245,17.1L245,17.1z
	 M137.7,221.7c0-0.4-0.1-0.7-0.1-1.1c-3.1-15.5-2.2-31.3,0.4-33.1c4.9,0.7,10.5,0.3,11.1,5.6c0.5,4.3,0.3,8.2,2.3,27.8
	c1.7,9.5,2.2,19.2,1.4,28.9C144.3,242.7,138.9,232.7,137.7,221.7z M169.4,263.5c1.3-14.3,1-28.6-0.9-42.9c-1.9-17.3-2.9-34.8-3-52.2
	c0.2-4.5,0.9-18.2,26.6-18.2h45.3c2.4-0.2,55-5.2,84.1-41.6c19.5,24.7,23.5,72.7,23.6,104.3c-2,8.6-3,17.4-3.2,26.2
	c0,26.9,6.8,45.6-19,68.9c-29.6,26.9-29,50.4-52.4,50.4c-40.5,0-40.1,3.6-56.3-20.3c-6.1-9.3-13.1-18.1-20.9-26
	C177.6,296.4,169.7,288.4,169.4,263.5L169.4,263.5z M179.2,394.9v14.7c0,4.7,3.8,8.5,8.5,8.5s8.5-3.8,8.5-8.5v-67.4
	c12.6,17.9,20.6,33.2,45.2,33.2c47,0,48.3,3.8,74.2-33.2v67.4c0,4.7,3.8,8.5,8.5,8.5c4.7,0,8.5-3.8,8.5-8.5v-14.7
	c10,9.4,21,17.8,32.8,24.9c-3.1,19.5-13.8,61.2-48.7,72.8c-40.5,3.2-81.1,3.2-121.6,0c-35-11.5-45.7-53.3-48.8-72.8
	C158.2,412.6,169.2,404.3,179.2,394.9L179.2,394.9z M79.6,446.2c29.1-17,36.1-14.4,50.8-19.4c3.7,22.8,13.6,44.1,28.5,61.8
	c-36.5-4.1-72.2-13.3-106.1-27.6C61.8,456.2,70.7,451.3,79.6,446.2z" fill="#1a205c"/>
</svg>
