<?xml version="1.0" encoding="utf-8"?>
<!-- Generator: Adobe Illustrator 24.2.3, SVG Export Plug-In . SVG Version: 6.00 Build 0)  -->
<svg version="1.1" id="Laag_1" xmlns="http://www.w3.org/2000/svg" xmlns:xlink="http://www.w3.org/1999/xlink" x="0px" y="0px"
	 viewBox="0 0 512 512" style="enable-background:new 0 0 512 512;" xml:space="preserve">
<path id="Shape" d="M29.7,468.2c63.5,39.7,193,46.8,269.5,42.6h0.2c0.2,0,0.4-0.1,0.6-0.1c54-3,136-14.1,181.4-42.5
	c3.1-1.9,4.6-5.5,3.8-9.1c-4.9-22.5-24-39.2-46.9-40.9c-23.8-81.9-5.1-214.5-12.6-282.7C415.2,41.8,367.8,0,272,0
	c-85.3,0-110,39.7-116.9,58c-14.2-2.5-28.9,0.3-41.2,7.9c-22,14-34.8,43.3-38.2,87c-7.2,94,7.2,200-6.5,265.6
	c-21.5,3.1-38.9,19.3-43.5,40.6C25.1,462.7,26.6,466.3,29.7,468.2L29.7,468.2z M156.5,417.3c2.9,17.8,10.6,51.1,29.3,74.4
	c-11.2-1-22.2-2.3-32.8-3.8c-1.5-32.4-10.1-51.4-17.8-61.8C142.5,423.7,149.6,420.7,156.5,417.3L156.5,417.3z M213.3,493.8
	c-29.8-18.3-38.8-70.2-40.9-85.7c7.4-5,14.4-10.7,20.7-17c8-8.2,7.7-17.4,6.9-29.1c39.8,39.7,70.2,39.7,110,0
	c-0.7,11.8-1.1,20.5,7.1,28.8c6.3,6.3,13.2,11.9,20.6,16.8c-1.9,15-10.9,67.8-41,86.3C268.9,495.3,241,495.3,213.3,493.8
	L213.3,493.8z M162.5,196.4c12.1-18.7,21.6-38.9,28.2-60.2c20.7,19.9,71.9,58.4,156.8,60.5c-2.6,19.6-6.7,23.9-1.3,50.1
	c5,24.3-2.4,46.5-25.4,76.6c-20.2,26.5-38.7,43.1-54.9,49.4c-7,2.8-14.9,2.8-21.9,0c-16.2-6.3-34.7-22.9-54.9-49.4
	c-23-30.1-30.4-52.2-25.4-76.5C169.3,220.2,165.1,216.3,162.5,196.4L162.5,196.4z M375,425.7c-7.7,10.4-16.6,29.5-18,62.3
	c-10.6,1.5-21.6,2.7-32.8,3.7c18.9-23.5,26.6-57.3,29.5-75C360.5,420.3,367.6,423.3,375,425.7L375,425.7z M466.6,457.1
	c-29.2,14-60.4,23.6-92.5,28.3c2.3-35.5,14.5-50.2,19.2-54.6c13.8,3,27.8,4.5,41.9,4.4C449.2,435.2,461.8,443.9,466.6,457.1
	L466.6,457.1z M123,80.5c10.5-6.5,23.4-8,35.1-4.2c2.4,0.9,5.1,0.7,7.4-0.6c2.2-1.3,3.7-3.6,4.1-6.1c0.1-0.5,8.6-52.4,102.5-52.4
	c214,0,103.9,231.8,148.2,400.4c-34-1.5-66.3-15.2-91-38.7c-1.5-1.4-2.3-3.3-2.5-5.3c-0.3-12.1,1.2-24.1,4.4-35.8
	c22.9-29.2,39.1-58.2,31.7-94.4c-5-23.8-1-24,1.8-46.7c3.4-0.1,6.8-0.1,10.3-0.4c3-0.2,5.8-2,7.1-4.8c1.3-2.7,1.1-6-0.6-8.5
	c-1.7-2.5-4.6-4-7.7-3.8c-121.7,8.1-179.9-64.3-180.4-65c-2-2.6-5.3-3.8-8.5-3.1c-3.2,0.7-5.7,3.1-6.5,6.3
	c-7.1,27.9-25,71.8-48,89.1c-2.9,2.2-4.1,6-3,9.5c1.2,3.5,4.4,5.8,8.1,5.8c1.8,0,3.6-0.6,5.1-1.7c2.6-2,5.1-4.2,7.5-6.5
	c2,9.8,1.7,20-1.1,29.7c-7.4,36.1,8.9,65.3,31.7,94.4c3.3,11.8,4.7,24.1,4.4,36.3c-0.1,1.9-0.9,3.7-2.3,5
	c-13.4,13.7-42.9,35.9-94,38.7C106.4,313.1,64.9,118,123,80.5L123,80.5z M76.3,435.2c13.7,0,27.3-1.4,40.7-4.2
	c4.9,4.7,16.6,19.5,18.9,54.2c-31.7-4.7-62.5-14.2-91.3-28.1C49.2,443.7,62.1,434.8,76.3,435.2z" fill="#1a205c"/>
</svg>
