<svg width="17" height="16" viewBox="0 0 17 16" fill="none" xmlns="http://www.w3.org/2000/svg">
<path d="M4.06983 15.202H11.8105C12.2893 15.202 13.4065 14.8828 14.2045 14.1646C14.6035 13.8454 14.9227 13.3666 15.0823 12.808H0.798005C0.877806 13.3666 1.27681 13.7656 1.67582 14.1646C2.47382 14.8828 3.59103 15.202 4.06983 15.202ZM8.85786 0.678302C8.69826 0.518701 8.69826 0.279302 8.85786 0.119701C9.01746 -0.0399003 9.25688 -0.0399003 9.41648 0.119701C10.4539 1.15711 9.97506 2.03491 9.49626 2.99251C9.17706 3.63092 8.85787 4.34913 9.41648 4.90773C9.57608 5.06733 9.57608 5.30673 9.41648 5.46633C9.25688 5.62593 9.01746 5.62593 8.85786 5.46633C7.82046 4.42893 8.29925 3.55112 8.77806 2.59351C9.17706 1.95511 9.49627 1.31671 8.85786 0.678302ZM6.46385 0.678302C6.30425 0.518701 6.30425 0.279302 6.46385 0.119701C6.62345 -0.0399003 6.86286 -0.0399003 7.02246 0.119701C8.05987 1.15711 7.58104 2.03491 7.10224 2.99251C6.78304 3.63092 6.46386 4.34913 7.02246 4.90773C7.18206 5.06733 7.18206 5.30673 7.02246 5.46633C6.86286 5.62593 6.62345 5.62593 6.46385 5.46633C5.42644 4.42893 5.90524 3.55112 6.38404 2.59351C6.78304 1.95511 7.10225 1.31671 6.46385 0.678302ZM13.2469 9.93517C13.0873 10.2544 13.0075 10.5736 12.9277 10.8928C12.8479 11.2918 12.7681 11.6908 12.7681 12.0898H14.2843C14.0449 11.212 13.7257 10.4938 13.2469 9.93517ZM11.9701 12.01C11.9701 11.5312 12.0499 11.1322 12.2095 10.6534C12.3691 10.1746 12.5287 9.69576 12.6883 9.21696C12.5287 9.05735 12.2893 8.81795 12.1297 8.65835C11.8105 8.41895 11.5711 8.17955 11.1721 8.01995C10.9327 8.57855 10.6933 9.29676 10.6135 9.93517C10.4539 10.6534 10.3741 11.2918 10.3741 11.9302H11.9701V12.01ZM9.57606 12.01C9.57606 11.2918 9.65588 10.5736 9.81548 9.85536C9.97508 9.13716 10.2145 8.41895 10.4539 7.78054C9.81547 7.54114 9.17707 7.38155 8.53867 7.30175C8.05986 8.01995 7.74065 8.81796 7.50124 9.69576C7.26184 10.4938 7.10224 11.3716 7.10224 12.0898H9.57606V12.01ZM6.30424 12.01C6.30424 11.1322 6.46384 10.2544 6.78304 9.37655C7.02245 8.65835 7.34165 7.94015 7.66086 7.22194C6.86285 7.22194 6.14464 7.38155 5.50623 7.70075C5.02743 8.41895 4.62843 9.13716 4.38903 9.93517C4.14963 10.6534 3.99003 11.3716 3.99003 12.0898H6.30424V12.01ZM3.19202 12.01C3.19202 11.2918 3.35163 10.414 3.67083 9.61596C3.83043 9.21696 3.99004 8.81795 4.14964 8.41895C4.06984 8.49875 3.91024 8.57855 3.83044 8.65835C2.79303 9.53616 2.07482 10.6534 1.67582 11.9302H3.19202V12.01ZM0.877811 12.01C1.27681 10.414 2.07482 9.05736 3.35163 8.09975C3.91024 7.62095 4.46882 7.30174 5.10723 6.98254C5.98503 6.58354 6.94265 6.42394 7.98005 6.42394C9.73566 6.42394 11.4115 7.06235 12.6883 8.09975C13.8853 9.05736 14.7631 10.4938 15.1621 12.01H15.6409C15.8803 12.01 16.0399 12.1696 16.0399 12.409C16.0399 13.3666 15.5611 14.1646 14.8429 14.7232C13.8853 15.5212 12.5287 16 11.8903 16H4.14964C3.51123 16 2.15461 15.601 1.19701 14.7232C0.558604 14.1646 0 13.3666 0 12.409C0 12.1696 0.159601 12.01 0.399003 12.01H0.877811Z" fill="#9480E5"/>
</svg>
