<?xml version="1.0" encoding="utf-8"?>
<!-- Generator: Adobe Illustrator 24.3.0, SVG Export Plug-In . SVG Version: 6.00 Build 0)  -->
<svg version="1.1" id="Laag_1" xmlns="http://www.w3.org/2000/svg" xmlns:xlink="http://www.w3.org/1999/xlink" x="0px" y="0px"
	 viewBox="0 0 492.2 492.2" style="enable-background:new 0 0 492.2 492.2;" xml:space="preserve">
<style type="text/css">
	.st0{clip-path:url(#SVGID_2_);}
	.st1{fill:#EBFAFF;}
	.st2{fill:#F6FCFF;}
</style>
<g id="Laag_2_2_">
	<g id="Laag_3_1_">
		<g>
			<defs>
				<rect id="SVGID_1_" width="492.2" height="492.2"/>
			</defs>
			<clipPath id="SVGID_2_">
				<use xlink:href="#SVGID_1_"  style="overflow:visible;"/>
			</clipPath>
			<g class="st0">
				<g>
					<rect class="st1" width="492.2" height="492.2"/>
				</g>
				<g>
					<path class="st2" d="M174.3,174.6c-1.8,0-3.3-1.5-3.3-3.3s1.5-3.3,3.3-3.3c5.6,0,10.1-4.5,10.1-10.1s-4.5-10.1-10.1-10.1
						c-1.8,0-3.3-1.5-3.3-3.3s1.5-3.3,3.3-3.3c9.2,0,16.7,7.5,16.7,16.7S183.5,174.6,174.3,174.6z"/>
				</g>
				<g>
					<path class="st2" d="M24.8,314.4c-0.8,0-1.7-0.3-2.3-1c-1.3-1.3-1.3-3.4,0-4.7c3.9-3.9,3.9-10.3,0-14.2c-3.9-4-10.3-4-14.3-0.1
						c-1.3,1.3-3.4,1.3-4.7,0c-1.3-1.3-1.3-3.4,0-4.7c6.6-6.5,17.2-6.4,23.6,0.2c6.4,6.5,6.3,17-0.1,23.5
						C26.5,314.1,25.7,314.4,24.8,314.4z"/>
				</g>
				<g>
					<path class="st2" d="M240,45.5c-0.8,0-1.5-0.3-2.1-0.8c-1.4-1.2-1.5-3.3-0.3-4.6c3.3-3.8,3.3-9.5,0-13.2
						c-3.7-4.2-10.1-4.7-14.3-1c-1.4,1.2-3.5,1-4.6-0.3c-1.2-1.4-1-3.5,0.3-4.6c7-6,17.5-5.3,23.6,1.7c5.4,6.2,5.4,15.6,0,21.8
						C241.8,45.1,240.9,45.5,240,45.5z"/>
				</g>
				<g>
					<path class="st2" d="M321.9,468.8c-1.8,0-3.3-1.5-3.3-3.3c0-4.5,1.7-8.7,4.9-11.8c3.2-3.2,7.3-4.9,11.8-4.9c0,0,0,0,0,0
						c4.5,0,8.7,1.7,11.8,4.9c3.2,3.2,4.9,7.3,4.9,11.8l-6.6,0c0-2.7-1.1-5.3-3-7.2c-1.9-1.9-4.5-3-7.2-3c0,0,0,0,0,0
						c-2.7,0-5.2,1.1-7.2,3c-1.9,1.9-3,4.5-3,7.2C325.2,467.3,323.8,468.8,321.9,468.8C321.9,468.8,321.9,468.8,321.9,468.8z"/>
				</g>
				<g>
					<path class="st2" d="M466.4,80.4c-3.9,0-7.7-1.4-10.7-3.9c-3.4-2.9-5.5-6.9-5.9-11.4c-0.1-1-0.1-1.9,0-2.9
						c0.2-1.8,1.8-3.2,3.6-3c1.8,0.2,3.1,1.8,3,3.6c-0.1,0.6-0.1,1.2,0,1.7c0.2,2.7,1.5,5.1,3.6,6.9c2.1,1.7,4.7,2.6,7.4,2.3
						c2.7-0.2,5.1-1.5,6.9-3.6c1.7-2.1,2.6-4.7,2.3-7.4c-0.2-1.8,1.2-3.4,3-3.6c1.8-0.2,3.4,1.2,3.6,3c0.4,4.4-1,8.8-3.9,12.2
						c-2.9,3.4-6.9,5.5-11.4,5.9C467.4,80.4,466.9,80.4,466.4,80.4z"/>
				</g>
				<g>
					<path class="st2" d="M326.7,166.1c-4.3,0-8.4-1.7-11.5-4.7c-0.1-0.1-0.2-0.2-0.3-0.3c-6.4-6.5-6.4-17.1,0-23.5
						c1.3-1.3,3.4-1.3,4.7,0c1.3,1.3,1.3,3.4,0,4.7c-3.9,3.9-3.9,10.4,0,14.3l0.2,0.2c1.9,1.9,4.4,2.9,7.1,2.8c2.7,0,5.1-1.1,7-3
						c1.3-1.3,3.4-1.3,4.7-0.1c1.3,1.3,1.3,3.4,0.1,4.7c-3.1,3.2-7.2,4.9-11.6,5C326.8,166.1,326.8,166.1,326.7,166.1z"/>
				</g>
				<g>
					<path class="st2" d="M162,411.7c-4.3,0-8.5-1.6-11.8-4.8c-1.3-1.3-1.3-3.4,0-4.7c1.3-1.3,3.4-1.3,4.7,0
						c3.9,3.9,10.3,3.9,14.2,0c4-3.9,4-10.3,0.1-14.3c-1.3-1.3-1.3-3.4,0-4.7c1.3-1.3,3.4-1.3,4.7,0c6.5,6.6,6.4,17.2-0.2,23.6
						C170.5,410.2,166.2,411.7,162,411.7z"/>
				</g>
				<g>
					<path class="st2" d="M169.2,287.7c-4.2,0-8.5-1.6-11.7-4.8l-0.1-0.1c-1.3-1.3-1.3-3.4,0-4.7c1.3-1.3,3.4-1.3,4.7,0l0.1,0.1
						c4,3.9,10.4,3.9,14.3-0.1c3.9-4,3.9-10.4-0.1-14.3c-1.3-1.3-1.3-3.4,0-4.7c1.3-1.3,3.4-1.3,4.7,0c6.6,6.5,6.7,17.1,0.2,23.6
						C177.9,286.1,173.5,287.7,169.2,287.7z"/>
				</g>
				<g>
					<path class="st2" d="M178.2,95.2c-0.9,0-1.7-0.3-2.4-1L161.6,80c-1.3-1.3-1.3-3.4,0-4.7c1.3-1.3,3.4-1.3,4.7,0l14.2,14.2
						c1.3,1.3,1.3,3.4,0,4.7C179.9,94.9,179.1,95.2,178.2,95.2z"/>
				</g>
				<g>
					<path class="st2" d="M39.3,204.8c-1.8,0-3.3-1.5-3.3-3.3v-20c0-1.8,1.5-3.3,3.3-3.3s3.3,1.5,3.3,3.3v20
						C42.6,203.3,41.1,204.8,39.3,204.8z"/>
				</g>
				<g>
					<path class="st2" d="M125.4,339.9h-20c-1.8,0-3.3-1.5-3.3-3.3s1.5-3.3,3.3-3.3h20c1.8,0,3.3,1.5,3.3,3.3
						S127.2,339.9,125.4,339.9z"/>
				</g>
				<g>
					<path class="st2" d="M335,76.6h-20.1c-1.8,0-3.3-1.5-3.3-3.3s1.5-3.3,3.3-3.3H335c1.8,0,3.3,1.5,3.3,3.3S336.8,76.6,335,76.6z"
						/>
				</g>
				<g>
					<path class="st2" d="M431.7,294.8c-0.8,0-1.7-0.3-2.3-1c-1.3-1.3-1.3-3.4,0-4.7l14.1-14.2c1.3-1.3,3.4-1.3,4.7,0s1.3,3.4,0,4.7
						l-14.1,14.2C433.4,294.5,432.6,294.8,431.7,294.8z"/>
				</g>
				<g>
					<path class="st2" d="M378.9,373.9c-0.9,0-1.7-0.3-2.4-1l-14.2-14.2c-1.3-1.3-1.3-3.4,0-4.7c1.3-1.3,3.4-1.3,4.7,0l14.2,14.2
						c1.3,1.3,1.3,3.4,0,4.7C380.6,373.5,379.8,373.9,378.9,373.9z"/>
				</g>
				<g>
					<path class="st2" d="M236.9,299.8c-0.8,0-1.7-0.3-2.3-1c-1.3-1.3-1.3-3.4,0-4.7l14.1-14.2c1.3-1.3,3.4-1.3,4.7,0
						c1.3,1.3,1.3,3.4,0,4.7l-14.1,14.2C238.6,299.5,237.8,299.8,236.9,299.8z"/>
				</g>
				<g>
					<path class="st2" d="M207.3,457.9c-1.8,0-3.3-1.5-3.3-3.3v-20c0-1.8,1.5-3.3,3.3-3.3s3.3,1.5,3.3,3.3v20
						C210.7,456.4,209.2,457.9,207.3,457.9z"/>
				</g>
				<g>
					<path class="st2" d="M39.3,56.1c-0.9,0-1.7-0.3-2.4-1c-1.3-1.3-1.3-3.4,0-4.7l14.2-14.2c1.3-1.3,3.4-1.3,4.7,0
						c1.3,1.3,1.3,3.4,0,4.7L41.6,55.1C41,55.8,40.1,56.1,39.3,56.1z"/>
				</g>
				<g>
					<circle class="st2" cx="243.9" cy="220.6" r="3.8"/>
				</g>
				<g>
					<circle class="st2" cx="391.6" cy="467.5" r="3.8"/>
				</g>
				<g>
					<circle class="st2" cx="461.7" cy="360.1" r="3.8"/>
				</g>
				<g>
					<circle class="st2" cx="108.3" cy="467.5" r="3.8"/>
				</g>
				<g>
					<circle class="st2" cx="274.6" cy="456" r="3.8"/>
				</g>
				<g>
					<circle class="st2" cx="321.1" cy="329.5" r="3.8"/>
				</g>
				<g>
					<circle class="st2" cx="39.3" cy="356.3" r="3.8"/>
				</g>
				<g>
					<circle class="st2" cx="46.4" cy="139.8" r="3.8"/>
				</g>
				<g>
					<circle class="st2" cx="128.8" cy="25.1" r="3.8"/>
				</g>
				<g>
					<circle class="st2" cx="395.4" cy="209.7" r="3.8"/>
				</g>
				<g>
					<path class="st2" d="M88.8,96.5c-9.2,0-16.7-7.5-16.7-16.7s7.5-16.7,16.7-16.7c9.2,0,16.7,7.5,16.7,16.7S98.1,96.5,88.8,96.5z
						 M88.8,69.7c-5.6,0-10.1,4.5-10.1,10.1S83.3,90,88.8,90S99,85.4,99,79.8S94.4,69.7,88.8,69.7z"/>
				</g>
				<g>
					<path class="st2" d="M104.6,241c-9.2,0-16.7-7.5-16.7-16.7s7.5-16.7,16.7-16.7c9.2,0,16.7,7.5,16.7,16.7S113.8,241,104.6,241z
						 M104.6,214.1c-5.6,0-10.1,4.5-10.1,10.1s4.5,10.1,10.1,10.1s10.1-4.5,10.1-10.1S110.2,214.1,104.6,214.1z"/>
				</g>
				<g>
					<path class="st2" d="M52.7,443.3c-9.2,0-16.7-7.5-16.7-16.7s7.5-16.7,16.7-16.7s16.7,7.5,16.7,16.7S61.9,443.3,52.7,443.3z
						 M52.7,416.5c-5.6,0-10.1,4.5-10.1,10.1s4.5,10.1,10.1,10.1s10.1-4.5,10.1-10.1S58.3,416.5,52.7,416.5z"/>
				</g>
				<g>
					<path class="st2" d="M332.6,276.3c-9.2,0-16.7-7.5-16.7-16.7c0-9.2,7.5-16.7,16.7-16.7c9.2,0,16.7,7.5,16.7,16.7
						C349.3,268.8,341.8,276.3,332.6,276.3z M332.6,249.4c-5.6,0-10.1,4.5-10.1,10.1c0,5.6,4.5,10.1,10.1,10.1s10.1-4.5,10.1-10.1
						C342.7,254,338.1,249.4,332.6,249.4z"/>
				</g>
				<g>
					<path class="st2" d="M261.1,393.6c-9.2,0-16.7-7.5-16.7-16.7c0-9.2,7.5-16.7,16.7-16.7c9.2,0,16.7,7.5,16.7,16.7
						C277.9,386.1,270.4,393.6,261.1,393.6z M261.1,366.7c-5.6,0-10.1,4.5-10.1,10.1s4.5,10.1,10.1,10.1s10.1-4.5,10.1-10.1
						S266.7,366.7,261.1,366.7z"/>
				</g>
				<g>
					<path class="st2" d="M240.2,136.7c-9.2,0-16.7-7.5-16.7-16.7c0-9.2,7.5-16.7,16.7-16.7s16.7,7.5,16.7,16.7
						C256.9,129.2,249.4,136.7,240.2,136.7z M240.2,109.9c-5.6,0-10.1,4.5-10.1,10.1s4.5,10.1,10.1,10.1s10.1-4.5,10.1-10.1
						S245.8,109.9,240.2,109.9z"/>
				</g>
				<g>
					<path class="st2" d="M461.7,454.2c-9.2,0-16.7-7.5-16.7-16.7s7.5-16.7,16.7-16.7s16.7,7.5,16.7,16.7S470.9,454.2,461.7,454.2z
						 M461.7,427.3c-5.6,0-10.1,4.5-10.1,10.1s4.5,10.1,10.1,10.1s10.1-4.5,10.1-10.1S467.3,427.3,461.7,427.3z"/>
				</g>
				<g>
					<path class="st2" d="M438.8,179.5c-9.2,0-16.7-7.5-16.7-16.7s7.5-16.7,16.7-16.7c9.2,0,16.7,7.5,16.7,16.7
						S448.1,179.5,438.8,179.5z M438.8,152.6c-5.6,0-10.1,4.5-10.1,10.1s4.5,10.1,10.1,10.1s10.1-4.5,10.1-10.1
						S444.4,152.6,438.8,152.6z"/>
				</g>
				<g>
					<path class="st2" d="M378.1,55.3c-9.2,0-16.7-7.5-16.7-16.7s7.5-16.7,16.7-16.7c9.2,0,16.7,7.5,16.7,16.7
						S387.4,55.3,378.1,55.3z M378.1,28.4c-5.6,0-10.1,4.5-10.1,10.1s4.5,10.1,10.1,10.1s10.1-4.5,10.1-10.1S383.7,28.4,378.1,28.4z
						"/>
				</g>
			</g>
		</g>
	</g>
</g>
</svg>
