<svg width="17" height="16" viewBox="0 0 17 16" fill="none" xmlns="http://www.w3.org/2000/svg">
<path d="M13.0025 5.67901C13.0025 5.58024 13.0025 5.48148 12.9527 5.38272C11.7587 5.4321 10.8632 5.48148 10.0174 5.7284C9.22139 5.97531 8.42537 6.37037 7.4801 7.06173C7.52985 7.16049 7.52985 7.30864 7.52985 7.45679C7.52985 7.75309 7.43035 8 7.23134 8.14815C7.03234 8.34568 6.78358 8.44445 6.53483 8.44445C6.23632 8.44445 5.98757 8.34568 5.83831 8.14815C5.63931 7.95061 5.5398 7.7037 5.5398 7.45679C5.5398 7.16049 5.63931 6.91358 5.83831 6.76543C6.03732 6.5679 6.28607 6.46914 6.53483 6.46914C6.78358 6.46914 6.98258 6.5679 7.18159 6.66666C8.17661 5.97531 9.02238 5.53086 9.86815 5.28395C10.6642 5.03703 11.4602 4.93827 12.4552 4.93827H12.4055C11.908 4.64197 11.2612 4.49383 10.7637 4.49383C9.76866 4.49383 8.82338 4.54321 7.8781 4.74074C6.98258 4.93827 6.13681 5.28395 5.44029 5.87655C5.09204 6.17284 4.69403 6.51852 4.44527 6.91358C4.19651 7.25926 4.04727 7.70371 4.04727 8.09877C4.04727 8.24692 4.09701 8.44445 4.14676 8.5926C4.24626 8.93827 4.44527 9.23456 4.74378 9.48148C4.99254 9.72839 5.3408 9.87654 5.73881 9.87654C5.88806 9.87654 6.08706 9.82716 6.23632 9.77778C7.18159 9.48148 7.72886 8.98766 8.32588 8.44445C8.72389 8.09877 9.12189 7.75309 9.66915 7.35803C10.1169 7.06173 10.7139 6.8642 11.3109 6.66666C12.1567 6.41975 13.0025 6.12345 13.0025 5.67901ZM4.04727 9.48148V9.67901C4.04727 9.82716 4.09701 10.0247 4.14676 10.1728C4.24626 10.5185 4.44527 10.8148 4.74378 11.0617C4.99254 11.3086 5.3408 11.4568 5.73881 11.4568C5.88806 11.4568 6.08706 11.4074 6.23632 11.358C7.18159 11.0617 7.72886 10.5679 8.32588 10.0247C8.72389 9.67901 9.12189 9.33333 9.66915 8.93827C10.1169 8.64198 10.7139 8.44444 11.3109 8.24691C12.2065 7.95061 13.0522 7.65432 13.0522 7.20988V6.46914C12.6542 6.76543 12.0572 6.96296 11.4602 7.16049C10.9129 7.35802 10.3159 7.55555 9.91791 7.80247C9.42039 8.14815 9.02238 8.49383 8.62437 8.83951C7.9776 9.4321 7.3806 9.92593 6.33583 10.2716C6.08707 10.3704 5.88806 10.3704 5.68905 10.3704C5.14179 10.3704 4.69404 10.1728 4.34578 9.82716C4.29603 9.77778 4.14677 9.62963 4.04727 9.48148ZM13.5 5.67901V7.25926C13.5 8.04938 12.4552 8.39506 11.4104 8.79012C10.8632 8.98765 10.2662 9.18519 9.86815 9.4321C9.37064 9.77778 8.97264 10.1235 8.57463 10.4691C7.92787 11.0617 7.33085 11.5556 6.28607 11.9012C6.03732 12 5.8383 12 5.6393 12C5.09203 12 4.64428 11.8025 4.29602 11.4568C3.94776 11.1605 3.69901 10.7654 3.59951 10.3704C3.54976 10.1235 3.5 9.92592 3.5 9.72839V8.24691C3.5 8.19753 3.5 8.19753 3.5 8.14815C3.5 7.60494 3.699 7.11111 3.99751 6.66666C4.29602 6.22222 4.69404 5.87654 5.09205 5.53086C5.88807 4.88888 6.78358 4.49382 7.72885 4.29629C8.67413 4.09876 9.7189 4 10.7139 4C11.3109 4 12.0572 4.14815 12.6542 4.49383C13.2015 4.74074 13.5 5.1358 13.5 5.67901ZM6.88308 7.06173C6.78358 6.96296 6.68408 6.91358 6.53483 6.91358C6.38557 6.91358 6.28607 6.96296 6.18656 7.06173C6.08706 7.16049 6.03732 7.25926 6.03732 7.40741C6.03732 7.55555 6.08706 7.65432 6.18656 7.75308C6.28607 7.85185 6.38557 7.90123 6.53483 7.90123C6.68408 7.90123 6.78358 7.85185 6.88308 7.75308C6.98258 7.65432 7.03234 7.55555 7.03234 7.40741C7.03234 7.30864 6.98258 7.16049 6.88308 7.06173Z" fill="#1A205C"/>
<path d="M8.5 16C4.0816 16 0.5 12.4184 0.5 8C0.5 3.5816 4.0816 0 8.5 0C12.9184 0 16.5 3.5816 16.5 8C16.5 12.4184 12.9184 16 8.5 16ZM8.5 14.4C10.1974 14.4 11.8253 13.7257 13.0255 12.5255C14.2257 11.3253 14.9 9.69739 14.9 8C14.9 6.30261 14.2257 4.67475 13.0255 3.47452C11.8253 2.27428 10.1974 1.6 8.5 1.6C6.80261 1.6 5.17475 2.27428 3.97452 3.47452C2.77428 4.67475 2.1 6.30261 2.1 8C2.1 9.69739 2.77428 11.3253 3.97452 12.5255C5.17475 13.7257 6.80261 14.4 8.5 14.4ZM13.5556 4.07558L4.59063 13.0673C4.15333 12.7557 3.75598 12.3617 3.44438 11.9244L12.4244 2.94438C12.8617 3.25598 13.244 3.63828 13.5556 4.07558Z" fill="#1A205C"/>
</svg>
