<svg width="17" height="16" viewBox="0 0 17 16" fill="none" xmlns="http://www.w3.org/2000/svg">
<path d="M6.15 11.45C6.5 11.4 6.9 11.3 7.2 11.1C7.4 10.95 7.55 10.75 7.6 10.45C7.4 10.45 7.2 10.5 7 10.6C6.95 10.6 6.95 10.65 6.9 10.65C6.5 10.85 6.25 11.1 6.15 11.45ZM11.6 5.85V3.75C11.6 3.6 11.7 3.5 11.85 3.5C12 3.5 12.1 3.6 12.1 3.75V5.65C12.35 5.6 12.6 5.55 12.85 5.55C13 5.55 13.1 5.65 13.1 5.8C13.1 6.25 12.95 6.65 12.75 6.95C12.75 7 12.7 7 12.7 7.05C12.75 7.05 12.8 7.05 12.85 7.05C13 7.05 13.1 7.15 13.1 7.3C13.1 7.75 12.95 8.15 12.75 8.45L12.7 8.5C12.75 8.5 12.75 8.5 12.8 8.5C12.95 8.5 13.05 8.6 13.05 8.75C13.05 9.2 12.9 9.6 12.7 9.9C12.7 9.95 12.65 9.95 12.65 10C12.7 10 12.75 10 12.8 10C12.95 10 13.05 10.1 13.05 10.25C13.05 10.85 12.8 11.25 12.45 11.55C12.05 11.85 11.5 11.95 11.05 12V12.75C11.05 12.9 10.95 13 10.8 13C10.65 13 10.55 12.9 10.55 12.75V12C10.1 11.95 9.55 11.85 9.15 11.55C8.8 11.3 8.55 10.85 8.55 10.25C8.55 10.1 8.65 10 8.8 10C8.85 10 8.9 10 8.95 10C8.95 9.95 8.9 9.95 8.9 9.9C8.7 9.6 8.55 9.2 8.55 8.75C8.55 8.6 8.65 8.5 8.8 8.5C8.85 8.5 8.85 8.5 8.9 8.5L8.85 8.45C8.65 8.15 8.5 7.75 8.5 7.3C8.5 7.15 8.6 7.05 8.75 7.05C8.8 7.05 8.85 7.05 8.9 7.05C8.9 7.05 8.85 7 8.85 6.95C8.65 6.65 8.5 6.25 8.5 5.8C8.5 5.65 8.6 5.55 8.75 5.55C9 5.55 9.25 5.6 9.5 5.65V3.75C9.5 3.6 9.6 3.5 9.75 3.5C9.9 3.5 10 3.6 10 3.75V5.85C10.15 5.95 10.25 6 10.35 6.1C10.4 6.15 10.45 6.2 10.5 6.25V3.25C10.5 3.1 10.6 3 10.75 3C10.9 3 11 3.1 11 3.25V6.25C11.05 6.2 11.1 6.15 11.15 6.1C11.35 6 11.5 5.9 11.6 5.85ZM11.6 7.35C11.65 7.3 11.7 7.25 11.75 7.25C11.95 7.2 12.2 7 12.4 6.7C12.5 6.5 12.6 6.3 12.65 6.05C12.25 6.1 11.9 6.25 11.65 6.5C11.35 6.8 11.15 7.2 11.15 7.6V7.75C11.2 7.7 11.25 7.65 11.3 7.6C11.35 7.5 11.45 7.4 11.6 7.35ZM11.65 8.75C11.7 8.75 11.7 8.75 11.65 8.75C11.75 8.7 11.8 8.65 11.9 8.65C12.05 8.55 12.25 8.4 12.35 8.15C12.45 7.95 12.55 7.75 12.6 7.5C12.2 7.55 11.85 7.7 11.6 7.95C11.3 8.25 11.1 8.65 11.1 9.05V9.15C11.15 9.1 11.2 9.05 11.25 9C11.4 8.95 11.5 8.85 11.65 8.75ZM12.1 9.1C12.05 9.15 11.95 9.15 11.9 9.2C11.8 9.25 11.7 9.35 11.6 9.4C11.3 9.7 11.1 10.1 11.1 10.5V10.55C11.3 10.35 11.55 10.25 11.8 10.15C12 10.05 12.15 9.9 12.35 9.65C12.45 9.45 12.55 9.25 12.6 9C12.4 9 12.25 9.05 12.1 9.1ZM12 10.65C11.95 10.65 11.95 10.7 11.9 10.7C11.55 10.85 11.25 11.15 11.15 11.5C11.5 11.45 11.9 11.35 12.2 11.15C12.4 11 12.55 10.8 12.6 10.5C12.4 10.5 12.2 10.55 12 10.65ZM10.6 10.6C10.6 10.15 10.4 9.75 10.1 9.45C10 9.35 9.9 9.3 9.8 9.25C9.75 9.25 9.65 9.2 9.6 9.15C9.45 9.1 9.3 9.05 9.1 9.05C9.15 9.3 9.25 9.5 9.35 9.7C9.5 9.95 9.7 10.15 9.9 10.2C10.15 10.25 10.4 10.4 10.6 10.6ZM10.6 9.2V9.1C10.6 8.65 10.4 8.25 10.1 8C9.85 7.75 9.5 7.6 9.1 7.55C9.15 7.8 9.25 8 9.35 8.2C9.5 8.4 9.65 8.6 9.8 8.7C9.85 8.7 9.9 8.75 10 8.8H10.05C10.2 8.9 10.35 9 10.45 9.1C10.5 9.1 10.55 9.15 10.6 9.2ZM10.6 7.75V7.6C10.6 7.15 10.4 6.75 10.1 6.5C9.85 6.25 9.5 6.1 9.1 6.05C9.15 6.3 9.25 6.5 9.35 6.7C9.55 7 9.8 7.2 10 7.25C10.05 7.25 10.1 7.3 10.15 7.35C10.25 7.4 10.4 7.5 10.5 7.6C10.5 7.65 10.55 7.7 10.6 7.75ZM9.8 10.65C9.75 10.65 9.75 10.65 9.7 10.6C9.5 10.55 9.3 10.5 9.1 10.45C9.15 10.75 9.3 10.95 9.5 11.1C9.8 11.3 10.2 11.4 10.55 11.45C10.5 11.1 10.2 10.85 9.8 10.65ZM6.6 5.85V3.75C6.6 3.6 6.7 3.5 6.85 3.5C7 3.5 7.1 3.6 7.1 3.75V5.65C7.35 5.6 7.6 5.55 7.85 5.55C8 5.55 8.1 5.65 8.1 5.8C8.1 6.25 7.95 6.65 7.75 6.95C7.75 7 7.7 7 7.7 7.05C7.75 7.05 7.8 7.05 7.85 7.05C8 7.05 8.1 7.15 8.1 7.3C8.1 7.75 7.95 8.15 7.75 8.45L7.7 8.5C7.75 8.5 7.75 8.5 7.8 8.5C7.95 8.5 8.05 8.6 8.05 8.75C8.05 9.2 7.9 9.6 7.7 9.9C7.7 9.95 7.65 9.95 7.65 10C7.7 10 7.75 10 7.8 10C7.95 10 8.05 10.1 8.05 10.25C8.05 10.85 7.8 11.25 7.45 11.55C7.05 11.85 6.5 11.95 6.05 12V12.75C6.05 12.9 5.95 13 5.8 13C5.65 13 5.55 12.9 5.55 12.75V12C5.1 11.95 4.55 11.85 4.15 11.55C3.8 11.3 3.55 10.85 3.55 10.25C3.55 10.1 3.65 10 3.8 10C3.85 10 3.9 10 3.95 10C3.95 9.95 3.9 9.95 3.9 9.9C3.7 9.6 3.55 9.2 3.55 8.75C3.55 8.6 3.65 8.5 3.8 8.5C3.85 8.5 3.85 8.5 3.9 8.5L3.85 8.45C3.65 8.15 3.5 7.75 3.5 7.3C3.5 7.15 3.6 7.05 3.75 7.05C3.8 7.05 3.85 7.05 3.9 7.05C3.9 7.05 3.85 7 3.85 6.95C3.65 6.65 3.5 6.25 3.5 5.8C3.5 5.65 3.6 5.55 3.75 5.55C4 5.55 4.25 5.6 4.5 5.65V3.75C4.5 3.6 4.6 3.5 4.75 3.5C4.9 3.5 5 3.6 5 3.75V5.85C5.15 5.95 5.25 6 5.35 6.1C5.4 6.15 5.45 6.2 5.5 6.25V3.25C5.5 3.1 5.6 3 5.75 3C5.9 3 6 3.1 6 3.25V6.25C6.05 6.2 6.1 6.15 6.15 6.1C6.35 6 6.5 5.9 6.6 5.85ZM6.6 7.35C6.65 7.3 6.7 7.25 6.75 7.25C6.95 7.2 7.2 7 7.4 6.7C7.5 6.5 7.6 6.3 7.65 6.05C7.25 6.1 6.9 6.25 6.65 6.5C6.35 6.8 6.15 7.2 6.15 7.6V7.75C6.2 7.7 6.25 7.65 6.3 7.6C6.35 7.5 6.45 7.4 6.6 7.35ZM6.65 8.75C6.65 8.75 6.7 8.75 6.65 8.75C6.75 8.7 6.8 8.65 6.9 8.65C7.05 8.55 7.25 8.4 7.35 8.15C7.45 7.95 7.55 7.75 7.6 7.5C7.2 7.55 6.85 7.7 6.6 7.95C6.3 8.25 6.1 8.65 6.1 9.05V9.15C6.15 9.1 6.2 9.05 6.25 9C6.35 8.95 6.5 8.85 6.65 8.75ZM7.1 9.1C7.05 9.15 6.95 9.15 6.9 9.2C6.8 9.25 6.7 9.35 6.6 9.4C6.3 9.7 6.1 10.1 6.1 10.5V10.55C6.3 10.35 6.55 10.25 6.8 10.15C7 10.05 7.15 9.9 7.35 9.65C7.45 9.45 7.55 9.25 7.6 9C7.4 9 7.25 9.05 7.1 9.1ZM5.6 7.6C5.6 7.15 5.4 6.75 5.1 6.45C4.85 6.2 4.5 6.05 4.1 6C4.15 6.25 4.25 6.45 4.35 6.65C4.55 6.95 4.8 7.15 5 7.2C5.05 7.2 5.1 7.25 5.15 7.3C5.25 7.35 5.4 7.45 5.5 7.55C5.55 7.6 5.6 7.65 5.65 7.7V7.6H5.6ZM5.6 9.1C5.6 8.65 5.4 8.25 5.1 7.95C4.85 7.7 4.5 7.55 4.1 7.5C4.15 7.75 4.25 7.95 4.35 8.15C4.5 8.35 4.65 8.55 4.8 8.65C4.85 8.65 4.9 8.7 5 8.75H5.05C5.2 8.85 5.35 8.95 5.45 9.05C5.5 9.1 5.55 9.15 5.6 9.2V9.1ZM5.6 10.6C5.6 10.15 5.4 9.75 5.1 9.45C5 9.35 4.9 9.3 4.8 9.25C4.75 9.25 4.65 9.2 4.6 9.15C4.45 9.1 4.3 9.05 4.1 9.05C4.15 9.3 4.25 9.5 4.35 9.7C4.5 9.95 4.7 10.15 4.9 10.2C5.15 10.25 5.4 10.4 5.6 10.6ZM4.8 10.65C4.75 10.65 4.75 10.65 4.7 10.6C4.5 10.55 4.3 10.5 4.1 10.45C4.15 10.75 4.3 10.95 4.5 11.1C4.8 11.3 5.2 11.4 5.55 11.45C5.5 11.1 5.2 10.85 4.8 10.65Z" fill="#1A205C"/>
<path d="M8.5 16C4.0816 16 0.5 12.4184 0.5 8C0.5 3.5816 4.0816 0 8.5 0C12.9184 0 16.5 3.5816 16.5 8C16.5 12.4184 12.9184 16 8.5 16ZM8.5 14.4C10.1974 14.4 11.8253 13.7257 13.0255 12.5255C14.2257 11.3253 14.9 9.69739 14.9 8C14.9 6.30261 14.2257 4.67475 13.0255 3.47452C11.8253 2.27428 10.1974 1.6 8.5 1.6C6.80261 1.6 5.17475 2.27428 3.97452 3.47452C2.77428 4.67475 2.1 6.30261 2.1 8C2.1 9.69739 2.77428 11.3253 3.97452 12.5255C5.17475 13.7257 6.80261 14.4 8.5 14.4ZM13.5556 4.07558L4.59063 13.0673C4.15333 12.7557 3.75598 12.3617 3.44438 11.9244L12.4244 2.94438C12.8617 3.25598 13.244 3.63828 13.5556 4.07558Z" fill="#1A205C"/>
</svg>
