<svg width="17" height="16" viewBox="0 0 17 16" fill="none" xmlns="http://www.w3.org/2000/svg">
<path d="M7.31221 12.4792C7.46157 12.4792 7.56115 12.4294 7.66073 12.3298C7.7603 12.2801 7.85986 12.1805 7.95944 12.0809V9.59151C7.85986 9.59151 7.81008 9.64129 7.7105 9.64129C7.41178 9.64129 7.16284 9.49194 6.96369 9.29278C6.81432 9.09363 6.71475 8.7949 6.71475 8.44639C6.71475 8.14766 6.81432 7.84894 6.96369 7.60001C7.16284 7.35107 7.41178 7.25149 7.7105 7.25149C7.81008 7.25149 7.85986 7.25149 7.95944 7.30128V5.50892C7.7105 5.30977 7.46158 5.16041 7.16285 5.06083C6.81434 4.96125 6.36623 4.96125 5.96793 5.01104H5.86835C5.22111 5.11061 4.72323 5.40935 4.37472 5.85744C4.02621 6.30553 3.87687 7.00254 4.02623 7.94851V8.09788C4.22538 9.19321 4.77303 10.4379 5.47006 11.2843C6.06751 12.0809 6.76454 12.529 7.31221 12.4792ZM8.45732 12.0809C8.55689 12.1805 8.65649 12.2303 8.75606 12.3298C8.85564 12.3796 9.00498 12.4294 9.10455 12.4792C9.702 12.5788 10.3492 12.0809 10.9467 11.3839C11.6437 10.5375 12.1914 9.29278 12.3906 8.19745V8.04809C12.5399 7.10213 12.3906 6.40509 12.042 5.957C11.6935 5.50891 11.1956 5.2102 10.5484 5.11062H10.4488C10.0505 5.06083 9.60245 5.06082 9.25394 5.1604C8.95521 5.25997 8.65648 5.40935 8.40754 5.6085V7.35107C8.50712 7.35107 8.5569 7.30128 8.65648 7.30128C8.95521 7.30128 9.20414 7.45063 9.4033 7.64978C9.55266 7.84893 9.65223 8.14766 9.65223 8.49618C9.65223 8.7949 9.55266 9.09364 9.4033 9.34258C9.20414 9.59151 8.95521 9.69108 8.65648 9.69108C8.5569 9.69108 8.50712 9.69108 8.40754 9.64129V12.0809H8.45732ZM7.95944 9.04385V7.84894C7.90965 7.84894 7.90965 7.79915 7.85986 7.79915C7.81007 7.79915 7.76029 7.74936 7.7105 7.74936C7.56114 7.74936 7.46156 7.79915 7.36198 7.94851C7.26241 8.09787 7.21262 8.24724 7.21262 8.44639C7.21262 8.64554 7.26241 8.84469 7.36198 8.94426C7.46156 9.04384 7.56114 9.14341 7.7105 9.14341C7.76029 9.14341 7.81007 9.14342 7.85986 9.09364C7.90965 9.09364 7.95944 9.09363 7.95944 9.04385ZM7.95944 4.91146C8.00923 4.21443 8.20837 3.46762 9.10455 3.01953C9.20413 2.96974 9.3535 3.01954 9.45307 3.11911C9.50286 3.21869 9.45306 3.36804 9.35349 3.46762C8.70625 3.76634 8.55691 4.36379 8.50712 4.91146C8.70627 4.76209 8.95519 4.66253 9.20413 4.61274C9.65222 4.51317 10.1003 4.46338 10.5982 4.56295C10.648 4.56295 10.6978 4.56295 10.6978 4.56295C11.4446 4.71232 12.0918 5.01105 12.4901 5.6085C12.8884 6.20595 13.0876 7.00255 12.8884 8.09788V8.24724C12.6893 9.44214 12.0918 10.7366 11.345 11.6826C10.648 12.529 9.85138 13.1264 9.05478 12.9771C8.85562 12.9273 8.70627 12.8775 8.50712 12.7779C8.40755 12.7281 8.30797 12.6286 8.25818 12.5788C8.15861 12.6784 8.05903 12.7281 8.00925 12.7779C7.85988 12.8775 7.66071 12.9273 7.46156 12.9771C6.66496 13.1264 5.86837 12.529 5.17134 11.6826C4.42453 10.7366 3.87684 9.44215 3.6279 8.29703L3.57813 8.14766C3.37898 7.05233 3.57812 6.25573 3.97642 5.65827C4.37473 5.06082 5.02198 4.76211 5.7688 4.61274C5.81859 4.61274 5.86835 4.61274 5.86835 4.61274C6.36623 4.51317 6.81434 4.56294 7.26243 4.66252C7.51137 4.66252 7.76029 4.76209 7.95944 4.91146ZM8.45732 7.84894V9.04385C8.5071 9.04385 8.50711 9.09364 8.5569 9.09364C8.60669 9.09364 8.65647 9.14341 8.70626 9.14341C8.85562 9.14341 8.9552 9.09363 9.05478 8.94426C9.15435 8.7949 9.20413 8.64554 9.20413 8.44639C9.20413 8.24724 9.15435 8.04809 9.05478 7.94851C8.9552 7.84894 8.85562 7.74936 8.70626 7.74936C8.65647 7.74936 8.60669 7.74937 8.5569 7.79915C8.50711 7.79915 8.5071 7.84894 8.45732 7.84894Z" fill="#1A205C"/>
<path d="M8.5 16C4.0816 16 0.5 12.4184 0.5 8C0.5 3.5816 4.0816 0 8.5 0C12.9184 0 16.5 3.5816 16.5 8C16.5 12.4184 12.9184 16 8.5 16ZM8.5 14.4C10.1974 14.4 11.8253 13.7257 13.0255 12.5255C14.2257 11.3253 14.9 9.69739 14.9 8C14.9 6.30261 14.2257 4.67475 13.0255 3.47452C11.8253 2.27428 10.1974 1.6 8.5 1.6C6.80261 1.6 5.17475 2.27428 3.97452 3.47452C2.77428 4.67475 2.1 6.30261 2.1 8C2.1 9.69739 2.77428 11.3253 3.97452 12.5255C5.17475 13.7257 6.80261 14.4 8.5 14.4ZM13.5556 4.07558L4.59063 13.0673C4.15333 12.7557 3.75598 12.3617 3.44438 11.9244L12.4244 2.94438C12.8617 3.25598 13.244 3.63828 13.5556 4.07558Z" fill="#1A205C"/>
</svg>
