<svg width="17" height="16" viewBox="0 0 17 16" fill="none" xmlns="http://www.w3.org/2000/svg">
<path d="M8.58315 4.72509C9.1429 4.72509 9.78262 4.72508 10.2624 4.80504C10.3424 4.56515 10.4223 4.40523 10.5823 4.16534C10.9021 3.52563 11.222 2.80595 10.6622 2.2462C10.5023 2.08627 10.5023 1.84638 10.6622 1.68645C10.8221 1.52652 11.062 1.52652 11.222 1.68645C12.2615 2.72598 11.7817 3.60559 11.3019 4.56516C11.222 4.64512 11.2219 4.80505 11.142 4.88501C12.1016 4.96498 12.9812 5.12491 13.7808 5.3648C15.2202 5.76462 16.1797 6.40433 16.1797 7.12401C16.1797 9.12311 15.3001 10.8823 13.9407 12.2417C13.4609 12.7215 12.8212 13.1213 12.1815 13.5211V14.4007C12.1815 14.8805 11.7017 15.3603 10.9821 15.6002C10.3424 15.8401 9.54272 16 8.58315 16C7.62358 16 6.82394 15.8401 6.18423 15.6002C5.46456 15.3603 4.98477 14.8805 4.98477 14.4007V13.5211C4.34506 13.2013 3.70534 12.8014 3.22555 12.2417C1.86617 10.9623 0.986572 9.12311 0.986572 7.12401C0.986572 6.40433 1.94614 5.76462 3.38549 5.3648C4.0252 5.20487 4.66492 5.04494 5.46456 4.96498C5.54452 4.72509 5.70445 4.4852 5.78441 4.16534C6.10427 3.52563 6.42413 2.80595 5.86438 2.2462C5.70445 2.08627 5.70445 1.84638 5.86438 1.68645C6.02431 1.52652 6.26419 1.52652 6.42411 1.68645C7.46365 2.72598 6.98387 3.60559 6.50408 4.56516C6.42412 4.64512 6.42411 4.80505 6.34414 4.88501C6.82393 4.88501 7.22376 4.80504 7.70354 4.80504C7.78351 4.32526 7.94343 3.92544 8.10336 3.44566C8.50318 2.48609 8.82304 1.52652 8.18333 0.646918C8.0234 0.48699 8.10337 0.247101 8.2633 0.0871727C8.42323 -0.0727552 8.6631 0.00721363 8.82303 0.167142C9.7826 1.44657 9.30282 2.56606 8.903 3.76552C8.82304 4.08538 8.66311 4.40523 8.58315 4.72509ZM10.9021 5.68465C10.9021 5.92454 10.9821 6.2444 11.222 6.48429C11.3819 6.64422 11.3819 6.88411 11.222 7.04404C11.062 7.20397 10.8221 7.20397 10.6622 7.04404C10.1824 6.56425 10.0225 6.08447 10.1025 5.60468C9.62268 5.60468 9.06293 5.52473 8.58315 5.52473H8.50318C8.50318 5.84458 8.66311 6.16444 8.903 6.48429C9.06293 6.64422 8.98296 6.88411 8.82303 7.04404C8.6631 7.20397 8.42323 7.12401 8.2633 6.96408C7.86348 6.4843 7.78351 6.00451 7.70354 5.52473C7.14379 5.52473 6.66401 5.60468 6.10426 5.60468C6.10426 5.84457 6.18422 6.16443 6.42411 6.40432C6.58404 6.56425 6.58404 6.80415 6.42411 6.96408C6.26419 7.12401 6.02431 7.12401 5.86438 6.96408C5.46456 6.56426 5.30462 6.08447 5.30462 5.68465C4.66491 5.76462 4.10516 5.92454 3.62537 6.0045C2.50588 6.32436 1.78621 6.72418 1.78621 7.04404C1.78621 7.36389 2.50588 7.76372 3.62537 8.08357C4.9048 8.40343 6.66401 8.64332 8.58315 8.64332C10.5023 8.64332 12.2615 8.40343 13.5409 8.08357C14.6604 7.76372 15.3801 7.44386 15.3801 7.04404C15.3801 6.72418 14.6604 6.32436 13.5409 6.0045C12.8212 5.92454 11.9416 5.76462 10.9021 5.68465ZM11.3819 13.841C10.5023 14.1608 9.54272 14.3208 8.58315 14.3208C7.62358 14.3208 6.66402 14.1608 5.78441 13.841V14.3208C5.78441 14.4807 6.02429 14.6406 6.42411 14.8005C6.98386 15.0404 7.70355 15.1204 8.58315 15.1204C9.38279 15.1204 10.1824 14.9605 10.7422 14.8005C11.142 14.6406 11.3819 14.4807 11.3819 14.3208V13.841ZM11.5418 12.8814C11.5418 12.8814 11.6218 12.8814 11.5418 12.8814C12.2615 12.5616 12.8212 12.1617 13.381 11.682C13.6209 11.4421 13.9407 11.1222 14.1806 10.8023C13.9407 10.9623 13.6209 11.1222 13.301 11.2022C12.1815 11.602 10.6622 11.9218 8.58315 11.9218C6.58405 11.9218 5.06474 11.602 3.86528 11.2022C3.54542 11.0422 3.22556 10.9623 2.98567 10.8023C3.22556 11.1222 3.46546 11.3621 3.78531 11.682C4.2651 12.1617 4.90479 12.5616 5.5445 12.8814C5.5445 12.8814 5.54451 12.8814 5.62447 12.8814C6.50408 13.2812 7.54362 13.5211 8.66312 13.5211C9.62269 13.5211 10.6622 13.3612 11.5418 12.8814ZM2.10606 9.12311C2.58585 9.60289 3.22556 10.1626 4.18513 10.4825C5.22466 10.8823 6.66401 11.1222 8.58315 11.1222C10.5023 11.1222 11.9416 10.8823 12.9812 10.4825C13.9407 10.0827 14.5805 9.60289 15.0602 9.12311C15.1402 8.88321 15.2202 8.64331 15.3001 8.40342C14.9003 8.64331 14.4205 8.80325 13.7808 8.96318C12.4214 9.363 10.5823 9.60288 8.58315 9.60288C6.58405 9.60288 4.74488 9.363 3.38549 8.96318C2.82574 8.80325 2.266 8.56335 1.86618 8.40342C1.94614 8.64331 2.0261 8.88321 2.10606 9.12311Z" fill="#EEAD1D"/>
</svg>
