<svg xmlns="http://www.w3.org/2000/svg" xmlns:xlink="http://www.w3.org/1999/xlink" version="1.1" style="" xml:space="preserve" width="490" height="490"><rect id="backgroundrect" width="100%" height="100%" x="0" y="0" fill="none" stroke="none"/>
<style type="text/css">
	.st0{fill:none;stroke:#a2a5c0;stroke-width:50;stroke-linecap:round;stroke-linejoin:round;stroke-miterlimit:10;}
</style>


<g class="currentLayer" style=""><title>Layer 1</title><g id="svg_1" class="selected" fill-opacity="1" fill="#a2a5c0">
	<path d="M245,50c52.1,0,101.1,20.3,137.9,57.1C419.7,143.9,440,192.9,440,245s-20.3,101.1-57.1,137.9   C346.1,419.7,297.1,440,245,440s-101.1-20.3-137.9-57.1C70.3,346.1,50,297.1,50,245s20.3-101.1,57.1-137.9   C143.9,70.3,192.9,50,245,50 M245,0C109.7,0,0,109.7,0,245s109.7,245,245,245s245-109.7,245-245S380.3,0,245,0L245,0z" id="svg_2" fill="#a2a5c0"/>
</g><polyline class="st0" points="241.8,112.9 241.8,258.5 312.4,333.5 " id="svg_3"/></g></svg>