<svg width="13" height="16" viewBox="0 0 13 16" fill="none" xmlns="http://www.w3.org/2000/svg">
<path d="M2.1 15.2H10.98L11.7 5.6H10.18C9.94001 5.92 9.54 6.24001 9.14 6.48C8.98 6.56001 8.82 6.64002 8.66 6.72002C8.26 6.88002 7.86 7.04002 7.46 7.12002C7.14 7.20002 6.82 7.2 6.5 7.2C6.26 7.2 6.02 7.20002 5.78 7.12002C5.3 7.04002 4.82 6.88002 4.34 6.72002C4.26 6.64002 4.18 6.64001 4.1 6.56001C3.62 6.32001 3.22 6 2.9 5.6H1.54L2.1 15.2ZM6.5 8.8C6.9 8.8 7.22 8.88001 7.46 9.04002C7.7 9.20002 7.94 9.36 8.1 9.6H8.9C9.14 9.6 9.3 9.76 9.3 10V11.6C9.3 11.84 9.14 12 8.9 12H8.1C7.94 12.24 7.7 12.4 7.46 12.56C7.14 12.72 6.82 12.8 6.5 12.8C6.1 12.8 5.78 12.72 5.54 12.56C5.3 12.4 5.14 12.24 4.9 12H4.1C3.86 12 3.7 11.84 3.7 11.6V10C3.7 9.76 3.86 9.6 4.1 9.6H4.9C5.06 9.36 5.3 9.20002 5.54 9.04002C5.86 8.88001 6.18 8.8 6.5 8.8ZM7.14 9.76001C6.98 9.68001 6.74 9.6 6.5 9.6C6.26 9.6 6.1 9.68001 5.86 9.76001C5.7 9.84001 5.54 10 5.46 10.16C5.38 10.32 5.22 10.4 5.14 10.4H4.5V11.2H5.14C5.3 11.2 5.38 11.28 5.46 11.44C5.54 11.6 5.7 11.76 5.94 11.92C6.1 12 6.34 12.08 6.58001 12.08C6.82 12.08 6.98 12 7.22 11.92C7.38 11.84 7.54 11.68 7.62 11.52C7.7 11.36 7.86 11.28 7.94 11.28H8.58V10.48H7.94C7.78 10.48 7.7 10.4 7.62 10.24C7.46 10 7.3 9.84001 7.14 9.76001ZM2.1 4.8V2.8C2.1 2.56 2.26 2.4 2.5 2.4H3.7V1.2C3.7 0.96 3.86 0.8 4.1 0.8H5.7C5.94 0.8 6.1 0.96 6.1 1.2V3.2H6.9V0.4C6.9 0.16 7.06 0 7.3 0H8.9C9.14 0 9.3 0.16 9.3 0.4V2.4H10.5C10.74 2.4 10.9 2.56 10.9 2.8V4.8H12.1C12.34 4.8 12.5 5.04 12.5 5.2L11.7 15.6C11.7 15.84 11.54 16 11.3 16H1.7C1.46 16 1.3 15.84 1.3 15.6L0.5 5.2C0.5 4.96 0.66 4.8 0.9 4.8H2.1ZM10.1 4.8V3.2H9.3V5.36001C9.38 5.28001 9.54 5.12001 9.62 5.04001C9.7 4.96001 9.78 4.88 9.94 4.88H10.1V4.8ZM8.5 5.92002V0.8H7.7V6.24001C7.94 6.16001 8.1 6.08 8.26 6C8.42 6 8.5 5.92002 8.5 5.92002ZM6.9 6.4V4H6.1V6.4C6.18 6.4 6.34 6.4 6.42 6.4C6.58 6.4 6.74 6.4 6.9 6.4ZM5.3 6.24001V1.6H4.5V6C4.82 6.16 5.06 6.24001 5.3 6.24001ZM3.7 5.52002V3.2H2.9V4.8C2.98 4.8 3.14 4.88001 3.22 4.96001C3.38 5.20001 3.54 5.36002 3.7 5.52002Z" fill="#1A205C"/>
</svg>
