<svg width="10" height="16" viewBox="0 0 10 16" fill="none" xmlns="http://www.w3.org/2000/svg">
<path d="M2.16337 4.03961C2.24258 3.72277 2.48019 3.40594 2.71781 3.16831C2.95543 2.93069 3.35148 2.69308 3.66831 2.53466V1.18812C3.66831 0.871287 3.82673 0.55445 3.98514 0.316827C4.22277 0.079203 4.46039 0 4.85643 0C5.17326 0 5.4901 0.158411 5.72772 0.316827C5.96535 0.55445 6.04455 0.871287 6.04455 1.18812V2.53466C6.44059 2.69308 6.75741 2.85148 6.99503 3.16831C7.23265 3.40594 7.47029 3.72277 7.5495 4.03961C7.78712 4.11881 7.94554 4.19802 8.10396 4.35643C8.34158 4.59406 8.42079 4.83169 8.42079 5.22772V5.70298C8.5792 5.78218 8.73762 5.86139 8.89604 6.0198C9.13366 6.25743 9.21287 6.49506 9.21287 6.89109V14.8119C9.21287 15.1287 9.05445 15.4455 8.89604 15.6831C8.65842 15.9208 8.42079 16 8.02475 16H1.68812C1.37129 16 1.05445 15.8416 0.816827 15.6831C0.579203 15.4455 0.5 15.2079 0.5 14.8119V6.89109C0.5 6.57426 0.658411 6.25743 0.816827 6.0198C0.975242 5.86139 1.05446 5.78218 1.29208 5.70298V5.22772C1.29208 4.91089 1.45049 4.59406 1.60891 4.35643C1.84653 4.27723 2.00495 4.11881 2.16337 4.03961ZM6.6782 4.03961C6.599 3.9604 6.5198 3.88118 6.44059 3.80197C6.20297 3.56434 5.88613 3.40595 5.5693 3.32674C5.41088 3.32674 5.25247 3.16832 5.25247 2.9307V1.26733C5.25247 1.18812 5.17325 1.02971 5.09405 0.950504C5.01484 0.871296 4.93564 0.871291 4.85643 0.871291C4.77723 0.871291 4.61879 0.950504 4.61879 0.950504C4.53959 1.02971 4.46039 1.10892 4.46039 1.26733V2.9307C4.46039 3.08912 4.38119 3.24753 4.14357 3.32674C3.74753 3.40595 3.43069 3.64355 3.19306 3.80197C3.11385 3.88118 3.03466 3.9604 2.95545 4.03961H6.6782ZM7.23267 4.83169H2.4802C2.40099 4.83169 2.24258 4.9109 2.16337 4.9109C2.08416 4.99011 2.08416 5.06931 2.08416 5.22772V5.62376H7.62871V5.22772C7.62871 5.14852 7.5495 4.99011 7.5495 4.9109C7.47029 4.83169 7.39109 4.83169 7.23267 4.83169ZM8.02475 6.41584H1.68812C1.60891 6.41584 1.45048 6.49506 1.45048 6.49506C1.37127 6.57426 1.37129 6.65347 1.37129 6.81188V8H3.35149C3.58911 8 3.74753 8.15842 3.74753 8.39604C3.74753 8.63366 3.58911 8.79208 3.35149 8.79208H1.37129V10.3762H3.35149C3.58911 10.3762 3.74753 10.5347 3.74753 10.7723C3.74753 11.0099 3.58911 11.1683 3.35149 11.1683H1.37129V12.7525H3.35149C3.58911 12.7525 3.74753 12.9109 3.74753 13.1485C3.74753 13.3861 3.58911 13.5446 3.35149 13.5446H1.37129V14.7327C1.37129 14.8119 1.45048 14.9703 1.45048 15.0495C1.52969 15.1287 1.60892 15.1287 1.76733 15.1287H8.10396C8.18317 15.1287 8.34158 15.0495 8.42079 15.0495C8.5 14.9703 8.5 14.8911 8.5 14.7327V6.81188C8.5 6.73267 8.42079 6.57426 8.42079 6.49506C8.26237 6.49506 8.18316 6.41584 8.02475 6.41584Z" fill="#1A205C"/>
</svg>
