<svg width="15" height="16" viewBox="0 0 15 16" fill="none" xmlns="http://www.w3.org/2000/svg">
<path d="M5.67173 3.95961V3.8788C5.75254 3.63638 5.83336 3.39396 5.83336 3.15153H5.59089C5.10605 3.15153 4.62121 3.23233 4.13636 3.31313C3.65151 3.39394 3.24749 3.55556 2.84345 3.71717C2.60103 3.79798 2.43938 3.9596 2.35857 4.12121C2.19696 4.28283 2.11616 4.52526 2.11616 4.68688C2.11616 4.8485 2.11617 5.0909 2.27779 5.25252C2.35859 5.41414 2.43942 5.57575 2.60104 5.65656C2.84346 5.81818 3.00506 6.14143 3.08587 6.38385C3.16667 6.62628 3.24749 6.78788 3.24749 7.03031H4.5404L5.67173 3.95961ZM13.7525 9.53536C13.995 9.53536 14.1566 9.69698 14.1566 9.9394C14.1566 10.1818 13.995 10.3434 13.7525 10.3434H12.3788C12.2172 11.8788 12.0556 13.4141 11.894 14.9495C11.894 15.2727 11.7323 15.5152 11.4899 15.6768C11.2475 15.8384 11.0051 16 10.6818 16H2.35857C2.03534 16 1.79292 15.9192 1.55049 15.6768C1.30807 15.5152 1.22726 15.1919 1.14645 14.9495L0.5 8.40405V8.32324C0.5 8.00001 0.580828 7.75758 0.823252 7.51516C0.984868 7.27274 1.30807 7.19193 1.55049 7.11112H1.63133C1.63133 7.11112 1.63131 7.11112 1.71212 7.11112H2.35857C2.35857 7.03031 2.27779 6.8687 2.27779 6.78789C2.19698 6.62628 2.11615 6.46466 1.95453 6.38385C1.71211 6.22224 1.55051 5.9798 1.46971 5.73737C1.30809 5.41414 1.22729 5.09092 1.22729 4.76769C1.22729 4.44446 1.38891 4.04041 1.63133 3.71717C1.79295 3.47475 2.03534 3.31315 2.35857 3.15153C2.84342 2.90911 3.32829 2.74749 3.89395 2.66668C4.4596 2.58587 4.94447 2.50505 5.42932 2.42424H5.59089C5.51009 2.18182 5.51011 1.9394 5.51011 1.69697C5.51011 1.37374 5.5909 1.0505 5.75252 0.80808C5.91414 0.565656 6.15658 0.323242 6.47981 0.161626C6.72224 0.0808179 7.12627 0 7.53031 0C8.01515 0 8.50001 0.0808179 8.90405 0.161626C9.30809 0.242434 9.79292 0.404055 10.197 0.646479C10.6818 0.888903 11.0858 1.05051 11.4091 1.29293C11.8131 1.53536 12.1364 1.85859 12.5404 2.18183C12.8636 2.50506 13.0253 2.74749 13.1869 3.07072C13.3485 3.47476 13.3485 3.87879 13.2677 4.20203C13.1868 4.52526 13.0253 4.8485 12.7828 5.09092C12.6212 5.25254 12.3788 5.41415 12.1364 5.49496C11.9748 5.57577 11.8939 5.65657 11.7323 5.81819C11.5707 6.06061 11.4091 6.30303 11.3283 6.54545L11.0859 7.19193H11.3283C11.3283 7.19193 11.3283 7.19193 11.4091 7.19193H11.4899C11.8131 7.19193 12.0555 7.35355 12.2172 7.59597C12.3788 7.8384 12.5404 8.08082 12.5404 8.40405C12.5404 8.80809 12.4596 9.21213 12.4596 9.61617H13.7525V9.53536ZM11.3283 7.9192H1.71212H1.63133C1.55052 7.9192 1.46973 8.00001 1.38892 8.00001C1.30811 8.08082 1.30808 8.16162 1.30808 8.24243L1.95453 14.7879C1.95453 14.8687 2.03537 14.9495 2.03537 15.0303C2.11618 15.1111 2.19698 15.1111 2.27779 15.1111H10.601C10.6818 15.1111 10.7626 15.1111 10.8434 15.0303C10.9242 14.9495 10.9243 14.8687 10.9243 14.7879C11.0859 12.7677 11.5707 10.101 11.5707 8.24243C11.5707 8.16162 11.5707 8.08082 11.4899 8.00001C11.5707 7.9192 11.4899 7.9192 11.3283 7.9192ZM6.64144 2.58587C6.72225 2.82829 6.72225 3.07071 6.64144 3.31313C6.64144 3.55556 6.56062 3.79798 6.47981 4.0404L5.42932 6.86868H10.3586L10.6818 5.899C10.8435 5.57577 11.005 5.25253 11.1667 4.92929C11.3283 4.68687 11.6515 4.44446 11.894 4.36365C12.0556 4.28284 12.1364 4.20202 12.298 4.12121C12.4596 3.9596 12.5404 3.79798 12.6212 3.63636C12.702 3.47474 12.6212 3.23233 12.5404 2.98991C12.4596 2.82829 12.298 2.58588 12.1364 2.34345C11.8131 2.02022 11.4899 1.7778 11.1667 1.53537C10.8434 1.29295 10.4394 1.13132 10.0353 0.969706C9.63129 0.80809 9.22725 0.646474 8.82321 0.565666C8.41917 0.484858 8.09594 0.40404 7.61109 0.40404C7.36867 0.40404 7.12626 0.404045 6.96464 0.484853C6.80302 0.565661 6.64141 0.646464 6.5606 0.80808C6.47979 0.969696 6.39897 1.13132 6.39897 1.29293C6.39897 1.53536 6.47979 1.7778 6.5606 1.93941C6.5606 2.34345 6.56063 2.42425 6.64144 2.58587Z" fill="#1A205C"/>
</svg>
