<svg xmlns="http://www.w3.org/2000/svg" xmlns:xlink="http://www.w3.org/1999/xlink" version="1.1" style="" xml:space="preserve" width="490" height="490"><rect id="backgroundrect" width="100%" height="100%" x="0" y="0" fill="none" stroke="none"/>

<g class="currentLayer" style=""><title>Layer 1</title><g id="svg_1" class="selected" fill-opacity="1" fill="#989bba">
	<path d="M474.4,391.6L371.8,289.3c13.9-27.8,23.2-60.2,23.2-92.6C395,88,306.9,0,198,0C89,0,0.9,88,0.9,196.7   C0.9,305.5,89,393.5,198,393.5c32.5,0,64.9-9.3,92.7-23.1l102.5,102.3c23.2,23.1,58,23.1,81.1,0   C495.2,449.5,495.2,414.8,474.4,391.6z M198,347.2c-83.5,0-150.7-67.1-150.7-150.4c0-83.3,67.2-150.4,150.7-150.4   c83.5,0,150.7,67.1,150.7,150.4C348.7,280,281.4,347.2,198,347.2z" id="svg_2" fill="#989bba"/>
</g></g></svg>