<svg width="17" height="16" viewBox="0 0 17 16" fill="none" xmlns="http://www.w3.org/2000/svg">
<path d="M7.02309 15.0564L10.3872 11.6923L4.06924 9.80514C3.82309 9.72309 3.74104 9.55898 3.74104 9.31283L4.31538 6.52309L1.44359 9.39488L7.02309 15.0564ZM9.73077 10.6256L5.21795 6.11283L4.64361 9.06668L9.73077 10.6256ZM13.9974 5.12821L12.1102 7.0154L13.4231 8.3282C13.5051 8.41025 13.5051 8.41026 13.5051 8.49231L15.3923 6.60514L13.9974 5.12821ZM11.5359 7.58974L9.64871 9.47694L11.1256 10.9538L13.0128 9.06668C12.9308 9.06668 12.9308 8.98462 12.8487 8.98462L11.5359 7.58974ZM9.07437 8.82051L10.9615 6.93334L9.48462 5.45641L7.59743 7.3436L9.07437 8.82051ZM11.5359 6.35898L13.4231 4.47181L11.9462 2.99487L10.059 4.88206L11.5359 6.35898ZM7.02309 6.76923L8.91026 4.88206L7.43334 3.40513L5.54615 5.29232L7.02309 6.76923ZM9.48462 4.30769L11.3718 2.42053L9.89488 0.943589L8.00769 2.83078L9.48462 4.30769ZM16.3769 6.85129L7.35129 15.8769C7.18719 16.041 6.94102 16.041 6.77692 15.8769L0.623077 9.72308C0.458974 9.55898 0.458974 9.31281 0.623077 9.14871L4.72564 5.04615L7.18718 2.58461L9.64871 0.123077C9.81281 -0.0410256 10.059 -0.0410256 10.2231 0.123077L14.3256 4.22564L16.3769 6.27692C16.459 6.44102 16.459 6.68719 16.3769 6.85129Z" fill="#1A205C"/>
</svg>
