<svg width="17" height="16" viewBox="0 0 17 16" fill="none" xmlns="http://www.w3.org/2000/svg">
<path d="M2.1 4.8V0.4C2.1 0.16 2.26 0 2.5 0H14.5C14.74 0 14.9 0.16 14.9 0.4V4.8H16.1C16.34 4.8 16.5 4.96 16.5 5.2V5.27998L14.9 15.68C14.9 15.84 14.66 16 14.5 16H2.5C2.26 16 2.1 15.84 2.1 15.68L0.5 5.27998C0.5 5.03998 0.579995 4.88 0.819995 4.8H0.9H2.1ZM14.5 5.6H12.1H4.9H1.37998L2.82 15.2H14.18L15.62 5.6H14.5ZM7.3 8C7.06 8 6.9 7.84 6.9 7.6C6.9 7.36 7.06 7.2 7.3 7.2H9.7C9.94 7.2 10.1 7.36 10.1 7.6C10.1 7.84 9.94 8 9.7 8H7.3ZM7.3 3.2C6.74 3.2 6.25999 3.43999 5.85999 3.75999C5.61999 3.99999 5.38 4.4 5.3 4.8H6.9C6.98 4.16 7.3 3.68 7.7 3.2C7.62 3.2 7.46 3.2 7.3 3.2ZM5.37998 3.2C5.85998 2.72 6.57998 2.4 7.37998 2.4C7.61998 2.4 7.86 2.39998 8.1 2.47998C8.26 2.55998 8.41998 2.55999 8.57998 2.63999C8.97998 2.47999 9.37998 2.4 9.77998 2.4C10.58 2.4 11.22 2.72 11.78 3.2C12.18 3.6 12.5 4.16 12.58 4.8H14.18V0.8H2.97998V4.8H4.57998C4.65998 4.16 4.89998 3.6 5.37998 3.2ZM9.7 3.2C9.3 3.2 8.89998 3.36 8.57998 3.6C8.49998 3.68 8.42 3.67999 8.42 3.75999L8.33999 3.83999C8.09999 4.07999 7.85998 4.47998 7.77998 4.87998H11.7C11.62 4.47998 11.46 4.15999 11.14 3.83999C10.82 3.35999 10.26 3.2 9.7 3.2Z" fill="#1A205C"/>
</svg>
