<svg xmlns="http://www.w3.org/2000/svg" xmlns:xlink="http://www.w3.org/1999/xlink" version="1.1" style="enable-background:new 0 0 490 490;" xml:space="preserve" width="490" height="490"><rect id="backgroundrect" width="100%" height="100%" x="0" y="0" fill="none" stroke="none"/>









<g class="currentLayer" style=""><title>Layer 1</title><path d="M452,76h-38.8v38.3c0,29.4-23.9,53.3-53.3,53.3c-29.4,0-53.3-23.9-53.3-53.3V76H180.8v38.3c0,29.4-23.9,53.3-53.3,53.3  s-53.3-23.9-53.3-53.3V76H38C17.9,76,1.5,92.3,1.5,112.5v341.2c0,20.1,16.4,36.5,36.5,36.5h414c20.1,0,36.5-16.4,36.5-36.5V112.5  C488.5,92.3,472.1,76,452,76z M446.8,448.5H43.2V195.3h403.6V448.5z" id="svg_1" class="" fill-opacity="1" fill="#a2a5c0"/><g id="svg_2" class="" fill-opacity="1" fill="#a2a5c0">
	<path d="M150.8,23.3v91c0,12.8-10.5,23.3-23.3,23.3c-12.8,0-23.3-10.5-23.3-23.3v-91c0-12.8,10.5-23.3,23.3-23.3   C140.3,0,150.8,10.5,150.8,23.3z" id="svg_3" fill="#a2a5c0"/>
</g><g id="svg_4" class="" fill="#a2a5c0" fill-opacity="1">
	<path d="M383.2,23.3v91c0,12.8-10.5,23.3-23.3,23.3c-12.8,0-23.3-10.5-23.3-23.3v-91c0-12.8,10.5-23.3,23.3-23.3   C372.7,0,383.2,10.5,383.2,23.3z" id="svg_5" fill="#a2a5c0" fill-opacity="1"/>
</g><g id="svg_6" class="" fill-opacity="1" fill="#a2a5c0">
	<path d="M150.2,291.8h-45.3c-8.2,0-15-6.7-15-15v-22c0-8.2,6.7-15,15-15h45.3c8.2,0,15,6.7,15,15v22   C165.2,285.1,158.4,291.8,150.2,291.8z" id="svg_7" fill="#a2a5c0"/>
</g><g id="svg_8" class="" fill-opacity="1" fill="#a2a5c0">
	<path d="M150.2,395.8h-45.3c-8.2,0-15-6.7-15-15v-22c0-8.2,6.7-15,15-15h45.3c8.2,0,15,6.7,15,15v22   C165.2,389.1,158.4,395.8,150.2,395.8z" id="svg_9" fill="#a2a5c0"/>
</g><g id="svg_10" class="" fill-opacity="1" fill="#a2a5c0">
	<path d="M267.7,291.8h-45.3c-8.2,0-15-6.7-15-15v-22c0-8.2,6.7-15,15-15h45.3c8.2,0,15,6.7,15,15v22   C282.6,285.1,275.9,291.8,267.7,291.8z" id="svg_11" fill="#a2a5c0"/>
</g><g id="svg_12" class="" fill-opacity="1" fill="#a2a5c0">
	<path d="M267.7,395.8h-45.3c-8.2,0-15-6.7-15-15v-22c0-8.2,6.7-15,15-15h45.3c8.2,0,15,6.7,15,15v22   C282.6,389.1,275.9,395.8,267.7,395.8z" id="svg_13" fill="#a2a5c0"/>
</g><g id="svg_14" class="" fill-opacity="1" fill="#a2a5c0">
	<path d="M382.6,291.8h-45.3c-8.2,0-15-6.7-15-15v-22c0-8.2,6.7-15,15-15h45.3c8.2,0,15,6.7,15,15v22   C397.5,285.1,390.8,291.8,382.6,291.8z" id="svg_15" fill="#a2a5c0"/>
</g><g id="svg_16" class="" fill-opacity="1" fill="#a2a5c0">
	<path d="M382.6,395.8h-45.3c-8.2,0-15-6.7-15-15v-22c0-8.2,6.7-15,15-15h45.3c8.2,0,15,6.7,15,15v22   C397.5,389.1,390.8,395.8,382.6,395.8z" id="svg_17" fill="#a2a5c0"/>
</g></g></svg>