<svg width="16" height="16" viewBox="0 0 16 16" fill="none" xmlns="http://www.w3.org/2000/svg">
<path d="M8.09658 4.72509C8.65633 4.72509 9.29604 4.72508 9.77583 4.80504C9.85579 4.56515 9.93575 4.40523 10.0957 4.16534C10.4155 3.52563 10.7354 2.80595 10.1756 2.2462C10.0157 2.08627 10.0157 1.84638 10.1756 1.68645C10.3356 1.52652 10.5755 1.52652 10.7354 1.68645C11.7749 2.72598 11.2951 3.60559 10.8153 4.56516C10.7354 4.64512 10.7354 4.80505 10.6554 4.88501C11.615 4.96498 12.4946 5.12491 13.2942 5.3648C14.7336 5.76462 15.6932 6.40433 15.6932 7.12401C15.6932 9.12311 14.8135 10.8823 13.4542 12.2417C12.9744 12.7215 12.3347 13.1213 11.695 13.5211V14.4007C11.695 14.8805 11.2152 15.3603 10.4955 15.6002C9.85579 15.8401 9.05615 16 8.09658 16C7.13701 16 6.33737 15.8401 5.69766 15.6002C4.97798 15.3603 4.4982 14.8805 4.4982 14.4007V13.5211C3.85849 13.2013 3.21877 12.8014 2.73898 12.2417C1.37959 10.9623 0.5 9.12311 0.5 7.12401C0.5 6.40433 1.45957 5.76462 2.89892 5.3648C3.53863 5.20487 4.17835 5.04494 4.97799 4.96498C5.05795 4.72509 5.21788 4.4852 5.29784 4.16534C5.61769 3.52563 5.93756 2.80595 5.37781 2.2462C5.21788 2.08627 5.21788 1.84638 5.37781 1.68645C5.53774 1.52652 5.77761 1.52652 5.93754 1.68645C6.97707 2.72598 6.49729 3.60559 6.01751 4.56516C5.93755 4.64512 5.93754 4.80505 5.85757 4.88501C6.33736 4.88501 6.73719 4.80504 7.21697 4.80504C7.29693 4.32526 7.45686 3.92544 7.61679 3.44566C8.01661 2.48609 8.33647 1.52652 7.69676 0.646918C7.53683 0.48699 7.6168 0.247101 7.77673 0.0871727C7.93666 -0.0727552 8.17653 0.00721363 8.33646 0.167142C9.29603 1.44657 8.81625 2.56606 8.41643 3.76552C8.33647 4.08538 8.17654 4.40523 8.09658 4.72509ZM10.4155 5.68465C10.4155 5.92454 10.4955 6.2444 10.7354 6.48429C10.8953 6.64422 10.8953 6.88411 10.7354 7.04404C10.5755 7.20397 10.3356 7.20397 10.1756 7.04404C9.69586 6.56425 9.53592 6.08447 9.61589 5.60468C9.13611 5.60468 8.57636 5.52473 8.09658 5.52473H8.01661C8.01661 5.84458 8.17654 6.16444 8.41643 6.48429C8.57636 6.64422 8.49639 6.88411 8.33646 7.04404C8.17653 7.20397 7.93666 7.12401 7.77673 6.96408C7.37691 6.4843 7.29693 6.00451 7.21697 5.52473C6.65722 5.52473 6.17744 5.60468 5.61769 5.60468C5.61769 5.84457 5.69765 6.16443 5.93754 6.40432C6.09747 6.56425 6.09747 6.80415 5.93754 6.96408C5.77761 7.12401 5.53774 7.12401 5.37781 6.96408C4.97799 6.56426 4.81805 6.08447 4.81805 5.68465C4.17834 5.76462 3.61859 5.92454 3.1388 6.0045C2.01931 6.32436 1.29964 6.72418 1.29964 7.04404C1.29964 7.36389 2.01931 7.76372 3.1388 8.08357C4.41823 8.40343 6.17744 8.64332 8.09658 8.64332C10.0157 8.64332 11.7749 8.40343 13.0543 8.08357C14.1738 7.76372 14.8935 7.44386 14.8935 7.04404C14.8935 6.72418 14.1738 6.32436 13.0543 6.0045C12.3347 5.92454 11.4551 5.76462 10.4155 5.68465ZM10.8953 13.841C10.0157 14.1608 9.05615 14.3208 8.09658 14.3208C7.13701 14.3208 6.17744 14.1608 5.29784 13.841V14.3208C5.29784 14.4807 5.53772 14.6406 5.93754 14.8005C6.49729 15.0404 7.21697 15.1204 8.09658 15.1204C8.89622 15.1204 9.69584 14.9605 10.2556 14.8005C10.6554 14.6406 10.8953 14.4807 10.8953 14.3208V13.841ZM11.0552 12.8814C11.0552 12.8814 11.1352 12.8814 11.0552 12.8814C11.7749 12.5616 12.3347 12.1617 12.8944 11.682C13.1343 11.4421 13.4542 11.1222 13.6941 10.8023C13.4542 10.9623 13.1343 11.1222 12.8144 11.2022C11.695 11.602 10.1756 11.9218 8.09658 11.9218C6.09748 11.9218 4.57817 11.602 3.37871 11.2022C3.05885 11.0422 2.73899 10.9623 2.4991 10.8023C2.73899 11.1222 2.97888 11.3621 3.29874 11.682C3.77852 12.1617 4.41822 12.5616 5.05793 12.8814C5.05793 12.8814 5.05794 12.8814 5.1379 12.8814C6.01751 13.2812 7.05705 13.5211 8.17655 13.5211C9.13612 13.5211 10.1756 13.3612 11.0552 12.8814ZM1.61949 9.12311C2.09927 9.60289 2.73899 10.1626 3.69856 10.4825C4.73809 10.8823 6.17744 11.1222 8.09658 11.1222C10.0157 11.1222 11.4551 10.8823 12.4946 10.4825C13.4542 10.0827 14.0939 9.60289 14.5737 9.12311C14.6536 8.88321 14.7336 8.64331 14.8135 8.40342C14.4137 8.64331 13.9339 8.80325 13.2942 8.96318C11.9348 9.363 10.0957 9.60288 8.09658 9.60288C6.09748 9.60288 4.25831 9.363 2.89892 8.96318C2.33917 8.80325 1.77943 8.56335 1.37961 8.40342C1.45957 8.64331 1.53953 8.88321 1.61949 9.12311Z" fill="#1A205C"/>
</svg>
