<svg xmlns="http://www.w3.org/2000/svg" viewBox="0 0 622.24 97.8"><defs><style>.cls-1{fill:#1a205c;}.cls-2{fill:#37addb;}</style></defs><g id="Laag_2" data-name="Laag 2"><g id="Laag_1-2" data-name="Laag 1"><path class="cls-1" d="M63.33,36.33c0,19-13.45,34.3-31.9,34.3C15.57,70.63,0,58.43,0,38.63,0,17,16.05,3.56,31.72,3.75,48.63,3.75,63.33,17.11,63.33,36.33ZM30.85,13.55C20,13.55,10.67,23.64,10.67,37.68c0,13.83,9.61,22.86,21.33,22.86s20.76-11.33,20.67-24C52.57,22.59,42.19,13.55,30.85,13.55Z"/><path class="cls-1" d="M79,25.08c2.5,0,4.13,1.06,4.51,3.46L83.76,33a16.7,16.7,0,0,1,14.71-8c12.59,0,20.37,9.81,20.37,22.3,0,13.08-9.32,23.26-22.29,23.26-5.39,0-9.9-2.11-12.59-5.86,0,2,.09,5.57.09,8.93s.19,7.79.19,12.5c0,3.46-1.82,5.19-5.86,5.09-3.07,0-4.71-1.63-4.71-5l.1-37.76-.1-18.55C73.77,26.43,76,25.08,79,25.08Zm17.59,9.13C89.72,34.21,84,39.79,84,48c0,8.56,4.7,13.36,11.82,13.36s12.49-5.86,12.49-14.22C108.27,39.5,102.79,34.21,96.55,34.21Z"/><path class="cls-1" d="M160.71,69.19V63.52a15.92,15.92,0,0,1-13.35,6.83c-12.5,0-21-10.19-21-21.72,0-13.36,9.32-23.55,21.91-23.55a15.75,15.75,0,0,1,12.88,6.73l.09-3c.29-2,2.21-3.36,4.9-3.36a4.56,4.56,0,0,1,4.9,4.61c0,10.86-.19,18.55-.19,30l.19,9.41c.2,13.17-9.89,22.68-23.25,22.68-5.19,0-9.71-.76-13.56-2.69-2.4-1.25-3.65-2.59-3.65-5.09s2-5.19,4.62-5.19c1.34,0,2.69.77,4.32,1.44a24.7,24.7,0,0,0,8.17,1.54A12.68,12.68,0,0,0,160.71,69.19ZM148.8,60.93c6.34,0,12.2-4.51,12.2-13.16,0-9.23-5.57-13.46-11.72-13.56-7,0-12.3,5.67-12.3,14.13C137,55.93,142.26,60.93,148.8,60.93Z"/><path class="cls-1" d="M189.42,25.37a3.77,3.77,0,0,1,4,3.46l.38,5.29c2.79-6.06,8.26-9.14,13.07-9.14,3.37,0,5.09,1.45,5.09,5,0,2.5-1.25,5-4.32,5h-1.63c-6.35,0-11.63,5.58-11.63,15.18,0,4.81.19,10.09.09,15.48-.09,3.17-2.3,4.42-5.38,4.42-3.27,0-5.19-1.34-5.09-5.87.09-7.39.29-16.81.29-23.63,0-3.27-.1-6.83-.1-10.19S186.15,25.37,189.42,25.37Z"/><path class="cls-1" d="M242.83,25.47c12.31,1.82,17.78,12.3,17.78,22.3,0,13.16-10,22.77-23.35,22.77-11.63,0-21.82-8.65-21.82-21.43,0-14.32,9.33-24,24.51-24.22A5.63,5.63,0,0,1,242.83,25.47ZM238,34.12c-7.31.38-12.11,5.86-12.11,15,0,7.31,5.67,12.2,11.15,12.2,6.82,0,13.07-5.38,13.07-13.93C250.14,40.36,245.81,34.5,238,34.12Z"/><path class="cls-1" d="M290.57,61a18.66,18.66,0,0,0,9.32-2.6,7.33,7.33,0,0,1,3.75-1.25c2.31,0,4.42,2.4,4.42,5,0,1.83-1.15,3.27-2.88,4.42-3.56,2.3-8.08,3.85-15.47,3.85A21.48,21.48,0,0,1,268.18,49.3c0-13.45,9.61-24.32,22.1-24.32,11.24,0,19.41,8.85,19.41,17.69,0,5-.76,7.49-7.49,7.59-5.39.19-11.92.1-23.36.19A11.47,11.47,0,0,0,290.57,61Zm-11.63-17.3c5,0,15.57-.1,19.61-.39.67-.1,1.15-.39,1.15-.86a9,9,0,0,0-9.23-8.94A11.67,11.67,0,0,0,278.94,43.73Z"/><path class="cls-2" d="M319.09,9.53A6.69,6.69,0,0,1,326,3.86c4.33,0,6.54,2.89,6.54,6.54,0,4.42-3.27,6.34-7.3,6.34S318.6,13.57,319.09,9.53Z"/><path class="cls-1" d="M393.56,8.65c2.11,1.25,3.36,2.5,3.36,4.52,0,2.39-1.73,5.09-4.42,5.09a11.3,11.3,0,0,1-5.1-1.82,23.47,23.47,0,0,0-12.68-3.37C363.86,13.07,353,23.35,353,36.42c0,15.18,8.74,24.22,21.62,24.22,11,0,17.3-8.84,17.49-17.69H381.25c-2.78-.09-4.23-2.11-4.23-4.6s1.35-4.43,4.52-4.52h15c5,0,6.15,2.79,6.15,7.3-.09,16.91-11.24,29.32-29.11,29.32S342.33,57,342.33,37.09C342.33,18,357.8,3.65,375.1,3.65A34.87,34.87,0,0,1,393.56,8.65Z"/><path class="cls-2" d="M412,9.82a6.7,6.7,0,0,1,6.92-5.67c4.32,0,6.53,2.89,6.53,6.54,0,4.42-3.27,6.34-7.3,6.34S411.49,13.86,412,9.82Z"/><path class="cls-1" d="M479.62,27.1c0,6.73-.1,12.88-.1,19.8,0,4,.19,8.64.19,18.74,0,3.17-2,4.61-5,4.61-2.69,0-4.22-1.44-4.61-3.65l-.38-4.32a16.37,16.37,0,0,1-14.23,8.17c-13.16,0-20.95-10.67-20.95-21.53,0-13.36,9.52-23.65,22.4-23.65a14.41,14.41,0,0,1,12.3,6.25l-.1-25.76C469.14,1.92,471,0,474.33,0s5.57,1.25,5.48,4.9ZM456.94,61.22c6.82,0,12.49-5,12.49-13.36s-5.19-13.45-11.82-13.45c-6.92,0-12.5,5.66-12.5,14.12C445.11,55.45,450.3,61.22,456.94,61.22Z"/><path class="cls-1" d="M521.39,27.29c1.63.77,3,1.83,3,3.75,0,2.69-1.25,4.52-4.13,4.52s-6.16-2.21-11.63-2.21c-4.42,0-8.17,2.11-8.17,5.38,0,3.55,4.32,3.84,9.13,4.51,9.22,1.26,16.24,4.14,16.24,13,0,9-7.11,14.23-18.26,14.23-8.46,0-17.11-2.89-17.11-6.26,0-2.68,1.06-5.18,4.14-5.18,3.55,0,7.2,2.79,13.93,2.79,4.23,0,7.69-1.83,7.69-5.29,0-3.65-3.37-4.62-9.32-5.48C499.19,50,490.83,48,490.83,39.3c0-8.45,8.65-14.22,17.68-14.22C514,25.08,518.51,26,521.39,27.29Z"/><path class="cls-1" d="M533.47,63.91a6.52,6.52,0,0,1,6.83-6.63,6.29,6.29,0,0,1,6.53,6.44c0,4-2.88,6.44-7,6.44A6.09,6.09,0,0,1,533.47,63.91Z"/><path class="cls-1" d="M557.29,31.42c-.09-3.94,1.25-6.15,5.39-6.15,3.26,0,4.42,1.54,4.71,4.71l.19,3.37c2.21-5.29,8.36-8.37,14.32-8.37,10.67,0,16.62,7,16.62,18.94,0,3.94-.09,6-.09,12.39v8.27c0,3.85-2,5.38-5.67,5.38-2.79,0-5-1.44-5-4.61,0-5.48.29-12.4.29-18.45-.1-6.54-1.44-12.69-8.75-12.69-10-.09-11.62,7.4-11.62,16.34l.09,15.09c0,3.46-2.88,4.52-5.28,4.52-3,0-5.29-1.06-5.29-4.62,0-5.76.29-11.53.19-25.66Z"/><path class="cls-1" d="M616.85.29c3.85,0,5.39,1.92,5.39,6-.29,15.48-.49,32.39-.49,47,0,4.23.29,8.36.39,12.21-.1,3.07-1.35,4.51-4.9,4.8s-5.87-1.63-6-7.4c-.48-12.4-.1-41.13,0-57.47C611.37,1.92,613.78.29,616.85.29Z"/><path class="cls-1" d="M372,97.8a59,59,0,0,1-26-5.93c-16.49-8.12-26.74-23.42-26.74-39.93V35.14a6.18,6.18,0,0,1,12.35,0v16.8c0,11.77,7.6,22.83,19.84,28.85a47.48,47.48,0,0,0,41.11,0c12.23-6,19.83-17.08,19.83-28.85V35.14a6.18,6.18,0,0,1,12.35,0v16.8c0,16.51-10.24,31.81-26.73,39.93A59,59,0,0,1,372,97.8Z"/></g></g></svg>