<svg width="13" height="16" viewBox="0 0 13 16" fill="none" xmlns="http://www.w3.org/2000/svg">
<path d="M2.03853 15.196H6.62145L6.21944 11.6583L5.73702 7.63819C5.73702 7.39699 5.89782 7.23618 6.05863 7.15578H8.06868V6.75377C8.06868 6.11055 7.50587 5.30653 6.94306 4.58291C6.38024 3.8593 5.81742 3.13567 5.65662 2.33165H4.04858C3.88777 3.13567 3.32495 3.8593 2.76214 4.58291C2.19933 5.30653 1.63652 6.11055 1.63652 6.75377V7.15578H3.64657C3.88777 7.15578 4.04858 7.31658 4.04858 7.55779V13.1859C4.04858 13.4271 3.88777 13.5879 3.64657 13.5879H1.63652V14.794C1.63652 14.8744 1.71692 15.0352 1.71692 15.1156C1.87773 15.1156 1.95812 15.196 2.03853 15.196ZM1.63652 7.9598V12.7839H3.24456V7.9598H1.63652ZM6.86265 10.8543C8.06868 10.0503 8.71191 10.5327 9.43552 10.8543C9.83753 11.0955 10.3199 11.3367 10.9632 10.7739L11.2848 7.9598H8.5511H6.62145L6.86265 10.8543ZM10.8828 11.8191C10.0787 12.2211 9.59633 11.8995 9.03351 11.5779C8.5511 11.2563 7.98829 10.9347 7.02346 11.7387L7.42547 15.196H10.5611L10.8828 11.8191ZM10.8828 16H7.10384H2.11893C1.79733 16 1.47571 15.8392 1.23451 15.6784C0.9933 15.4372 0.912903 15.196 0.912903 14.794V6.75377C0.912903 5.78894 1.55612 4.98493 2.19934 4.10051C2.68175 3.45729 3.16416 2.81407 3.32496 2.25126C3.16416 2.17086 3.00336 2.09045 2.92295 2.01005C2.68175 1.76884 2.60135 1.52764 2.60135 1.20603C2.60135 0.884422 2.76215 0.562809 2.92295 0.321603C3.16416 0.0803971 3.40537 0 3.80738 0H6.21944C6.54105 0 6.86264 0.160799 7.10384 0.321603C7.34505 0.562809 7.42547 0.80402 7.42547 1.20603C7.42547 1.52764 7.26465 1.84925 7.10384 2.09046C7.02344 2.17086 6.86264 2.33165 6.70183 2.33165C6.86264 2.89447 7.34507 3.53769 7.82748 4.1809C8.4707 5.06533 9.1139 5.86935 9.1139 6.83417V7.23618H11.928C12.1692 7.23618 12.33 7.39699 12.33 7.63819L12.0084 11.0955L11.526 15.6784C11.2848 15.8392 11.124 16 10.8828 16ZM6.05863 0.723613H3.64657C3.56617 0.723613 3.40537 0.80402 3.32496 0.80402C3.24456 0.884422 3.24456 0.96482 3.24456 1.12562C3.24456 1.20603 3.24456 1.28643 3.32496 1.36683C3.40537 1.44723 3.48576 1.44724 3.64657 1.44724H6.05863C6.13903 1.44724 6.29982 1.36683 6.29982 1.36683C6.38023 1.28643 6.38023 1.20603 6.38023 1.04523C6.38023 0.964827 6.29982 0.804015 6.29982 0.723613C6.29982 0.804015 6.21943 0.723613 6.05863 0.723613Z" fill="white"/>
</svg>
