<svg width="18" height="21" viewBox="0 0 18 21" fill="none" xmlns="http://www.w3.org/2000/svg">
<path d="M8.99996 21C13.56 21 17.33 17.6 17.92 13.2C18.01 12.56 17.44 11.99 16.8 12.08C12.4 12.67 8.99996 16.44 8.99996 21ZM2.59996 9.25C2.59996 10.63 3.71996 11.75 5.09996 11.75C5.62996 11.75 6.10996 11.59 6.51996 11.31L6.49996 11.5C6.49996 12.88 7.61996 14 8.99996 14C10.38 14 11.5 12.88 11.5 11.5L11.48 11.31C11.88 11.59 12.37 11.75 12.9 11.75C14.28 11.75 15.4 10.63 15.4 9.25C15.4 8.25 14.81 7.4 13.97 7C14.81 6.6 15.4 5.75 15.4 4.75C15.4 3.37 14.28 2.25 12.9 2.25C12.37 2.25 11.89 2.41 11.48 2.69L11.5 2.5C11.5 1.12 10.38 0 8.99996 0C7.61996 0 6.49996 1.12 6.49996 2.5L6.51996 2.69C6.11996 2.41 5.62996 2.25 5.09996 2.25C3.71996 2.25 2.59996 3.37 2.59996 4.75C2.59996 5.75 3.18996 6.6 4.02996 7C3.18996 7.4 2.59996 8.25 2.59996 9.25ZM8.99996 4.5C10.38 4.5 11.5 5.62 11.5 7C11.5 8.38 10.38 9.5 8.99996 9.5C7.61996 9.5 6.49996 8.38 6.49996 7C6.49996 5.62 7.61996 4.5 8.99996 4.5ZM0.0799573 13.2C0.669957 17.6 4.43996 21 8.99996 21C8.99996 16.44 5.59996 12.67 1.19996 12.08C0.559957 11.99 -0.0100427 12.56 0.0799573 13.2Z" fill="#1A205C"/>
</svg>
