<svg width="19" height="25" viewBox="0 0 19 25" fill="none" xmlns="http://www.w3.org/2000/svg">
<path d="M14.4658 22.9846C13.9803 22.9846 13.5502 22.56 13.4407 21.9758L12.3548 16.1688H5.9284C5.35365 16.1688 4.88574 15.6238 4.88574 14.953V7.73419C4.88574 7.06478 5.35365 6.51843 5.9284 6.51843H7.19826C7.773 6.51843 8.24091 7.06343 8.24091 7.73419V9.75866H11.2012C11.6583 9.75866 12.0302 10.1995 12.0302 10.7432C12.0302 11.2855 11.6583 11.7277 11.2012 11.7277H8.24227V13.4965H13.0363C13.0539 13.4965 13.0715 13.4965 13.0918 13.4979H13.1013L13.1107 13.4965C13.1459 13.4925 13.181 13.4898 13.2162 13.4898C13.7017 13.4898 14.1317 13.9144 14.2413 14.4986L15.4273 20.8371L17.1285 20.5044C17.1745 20.4949 17.2205 20.4909 17.2678 20.4909C17.6749 20.4909 18.0251 20.829 18.1009 21.2955C18.1861 21.8229 17.8872 22.3247 17.4328 22.4139L14.8268 22.9224L14.8174 22.9251C14.8093 22.9278 14.7998 22.9292 14.7917 22.9319L14.647 22.9643C14.5875 22.9778 14.5266 22.9846 14.4658 22.9846Z" fill="#1A205C"/>
<path d="M7.57137 23.0482C4.52724 23.0482 2.05786 20.5802 2.05786 17.5347C2.05786 15.7483 2.90713 14.1606 4.22567 13.1531V11.0786C1.89287 12.289 0.299805 14.7259 0.299805 17.5361C0.299805 21.5525 3.5549 24.8076 7.57137 24.8076C9.67427 24.8076 11.5689 23.9151 12.8969 22.487L12.4263 20.1502C11.4945 21.8758 9.67022 23.0482 7.57137 23.0482Z" fill="#1A205C"/>
<path d="M8.11754 5.36319C8.95619 4.52453 8.95619 3.1648 8.11754 2.32614C7.27889 1.48748 5.91917 1.48748 5.08052 2.32614C4.24187 3.1648 4.24187 4.52453 5.08052 5.36319C5.91917 6.20185 7.27889 6.20185 8.11754 5.36319Z" fill="#1A205C"/>
</svg>
