<svg width="9" height="16" viewBox="0 0 9 16" fill="none" xmlns="http://www.w3.org/2000/svg">
<path d="M1.66337 4.03961C1.74258 3.72277 1.98019 3.40594 2.21781 3.16831C2.45543 2.93069 2.85148 2.69308 3.16831 2.53466V1.18812C3.16831 0.871287 3.32673 0.55445 3.48514 0.316827C3.72277 0.079203 3.96039 0 4.35643 0C4.67326 0 4.9901 0.158411 5.22772 0.316827C5.46535 0.55445 5.54455 0.871287 5.54455 1.18812V2.53466C5.94059 2.69308 6.25741 2.85148 6.49503 3.16831C6.73265 3.40594 6.97029 3.72277 7.0495 4.03961C7.28712 4.11881 7.44554 4.19802 7.60396 4.35643C7.84158 4.59406 7.92079 4.83169 7.92079 5.22772V5.70298C8.0792 5.78218 8.23762 5.86139 8.39604 6.0198C8.63366 6.25743 8.71287 6.49506 8.71287 6.89109V14.8119C8.71287 15.1287 8.55446 15.4455 8.39604 15.6831C8.15842 15.9208 7.92079 16 7.52475 16H1.18812C0.871287 16 0.55445 15.8416 0.316827 15.6831C0.079203 15.4455 0 15.2079 0 14.8119V6.89109C0 6.57426 0.158411 6.25743 0.316827 6.0198C0.475242 5.86139 0.554455 5.78218 0.792079 5.70298V5.22772C0.792079 4.91089 0.95049 4.59406 1.10891 4.35643C1.34653 4.27723 1.50495 4.11881 1.66337 4.03961ZM6.1782 4.03961C6.099 3.9604 6.0198 3.88118 5.94059 3.80197C5.70297 3.56434 5.38613 3.40595 5.0693 3.32674C4.91088 3.32674 4.75247 3.16832 4.75247 2.9307V1.26733C4.75247 1.18812 4.67325 1.02971 4.59405 0.950504C4.51484 0.871296 4.43564 0.871291 4.35643 0.871291C4.27723 0.871291 4.11879 0.950504 4.11879 0.950504C4.03959 1.02971 3.96039 1.10892 3.96039 1.26733V2.9307C3.96039 3.08912 3.88119 3.24753 3.64357 3.32674C3.24753 3.40595 2.93069 3.64355 2.69306 3.80197C2.61385 3.88118 2.53466 3.9604 2.45545 4.03961H6.1782ZM6.73267 4.83169H1.9802C1.90099 4.83169 1.74258 4.9109 1.66337 4.9109C1.58416 4.99011 1.58416 5.06931 1.58416 5.22772V5.62376H7.12871V5.22772C7.12871 5.14852 7.0495 4.99011 7.0495 4.9109C6.97029 4.83169 6.89108 4.83169 6.73267 4.83169ZM7.52475 6.41584H1.18812C1.10891 6.41584 0.95048 6.49506 0.95048 6.49506C0.871272 6.57426 0.871291 6.65347 0.871291 6.81188V8H2.85149C3.08911 8 3.24753 8.15842 3.24753 8.39604C3.24753 8.63366 3.08911 8.79208 2.85149 8.79208H0.871291V10.3762H2.85149C3.08911 10.3762 3.24753 10.5347 3.24753 10.7723C3.24753 11.0099 3.08911 11.1683 2.85149 11.1683H0.871291V12.7525H2.85149C3.08911 12.7525 3.24753 12.9109 3.24753 13.1485C3.24753 13.3861 3.08911 13.5446 2.85149 13.5446H0.871291V14.7327C0.871291 14.8119 0.95048 14.9703 0.95048 15.0495C1.02969 15.1287 1.10892 15.1287 1.26733 15.1287H7.60396C7.68317 15.1287 7.84158 15.0495 7.92079 15.0495C8 14.9703 8 14.8911 8 14.7327V6.81188C8 6.73267 7.92079 6.57426 7.92079 6.49506C7.76237 6.49506 7.68316 6.41584 7.52475 6.41584Z" fill="#F18480"/>
</svg>
