<svg width="16" height="16" viewBox="0 0 16 16" fill="none" xmlns="http://www.w3.org/2000/svg">
<path d="M1.11289 16C0.872891 16 0.712891 15.84 0.712891 15.6C0.712891 15.36 0.872891 15.2 1.11289 15.2H1.51289V11.6C1.51289 11.28 1.67291 10.96 1.83291 10.72C2.07291 10.48 2.31289 10.4 2.71289 10.4H3.11289V7.6C3.11289 7.28 3.27291 6.96 3.43291 6.72C3.67291 6.48 3.91289 6.4 4.31289 6.4H4.71289V4.4C4.71289 4.08 4.87291 3.76 5.03291 3.52C5.27291 3.28 5.51289 3.2 5.91289 3.2H7.91289V0.4C7.91289 0.16 8.07289 0 8.31289 0C8.55289 0 8.71289 0.16 8.71289 0.4V3.2H10.7129C11.0329 3.2 11.3529 3.36 11.5929 3.52C11.8329 3.76 11.9129 4 11.9129 4.4V6.4H12.3129C12.6329 6.4 12.9529 6.56 13.1929 6.72C13.4329 6.96 13.5129 7.2 13.5129 7.6V10.4H13.9129C14.2329 10.4 14.5529 10.56 14.7929 10.72C15.0329 10.96 15.1129 11.2 15.1129 11.6V15.2H15.5129C15.7529 15.2 15.9129 15.36 15.9129 15.6C15.9129 15.84 15.7529 16 15.5129 16H1.11289ZM12.7929 8.96C12.1529 8.64 11.6729 8.88 11.1129 9.12C10.3129 9.52 9.43291 9.92 8.15291 9.12C7.43291 8.64 6.87289 8.88 6.31289 9.2C5.67289 9.52 4.9529 9.84 3.9929 9.52V10.48H12.7929V8.96ZM3.91289 8.56C4.71289 9.04 5.35289 8.72 5.91289 8.4C6.71289 8 7.43291 7.68 8.55291 8.4C9.51291 8.96 10.1529 8.72 10.7129 8.4C11.3529 8.08 11.9129 7.83999 12.7129 8.07999V7.52C12.7129 7.44 12.6329 7.28 12.6329 7.2C12.5529 7.12 12.4729 7.12 12.3129 7.12H4.31289C4.23289 7.12 4.0729 7.2 3.9929 7.2C3.9129 7.28 3.91289 7.36 3.91289 7.52V8.56ZM14.3929 13.36C13.4329 12.48 12.7929 12.96 12.0729 13.52C11.0329 14.32 9.83291 15.2 8.15291 13.44C7.19291 12.4 6.4729 12.96 5.6729 13.52C4.7129 14.24 3.7529 14.96 2.3929 14V15.12H14.3929V13.36ZM2.31289 12.96C3.51289 14 4.31289 13.44 5.11289 12.8C6.15289 12 7.11291 11.28 8.63291 12.8C9.91291 14 10.7129 13.36 11.5129 12.8C12.3929 12.16 13.1929 11.52 14.3129 12.24V11.52C14.3129 11.44 14.2329 11.28 14.2329 11.2C14.1529 11.12 14.0729 11.12 13.9129 11.12H3.51289H2.71289C2.63289 11.12 2.4729 11.2 2.3929 11.2C2.3129 11.28 2.31289 11.36 2.31289 11.52V12.96ZM8.3929 3.92H5.9929C5.9129 3.92 5.7529 4 5.6729 4C5.5929 4.08 5.5929 4.16 5.5929 4.32V6.32H11.1929V4.32C11.1929 4.24 11.1129 4.08 11.1129 4C11.0329 3.92 10.9529 3.92 10.7929 3.92H8.3929Z" fill="white"/>
</svg>
