<svg width="14" height="14" viewBox="0 0 14 14" fill="none" xmlns="http://www.w3.org/2000/svg">
<path d="M7.00016 13.6667C3.31816 13.6667 0.333496 10.682 0.333496 7C0.333496 3.318 3.31816 0.333332 7.00016 0.333332C10.6822 0.333332 13.6668 3.318 13.6668 7C13.6668 10.682 10.6822 13.6667 7.00016 13.6667ZM7.00016 12.3333C8.41465 12.3333 9.77121 11.7714 10.7714 10.7712C11.7716 9.77104 12.3335 8.41449 12.3335 7C12.3335 5.58551 11.7716 4.22896 10.7714 3.22876C9.77121 2.22857 8.41465 1.66667 7.00016 1.66667C5.58567 1.66667 4.22912 2.22857 3.22893 3.22876C2.22873 4.22896 1.66683 5.58551 1.66683 7C1.66683 8.41449 2.22873 9.77104 3.22893 10.7712C4.22912 11.7714 5.58567 12.3333 7.00016 12.3333ZM5.70016 6.33333H9.00016V7.66667H5.70016C5.75792 7.95022 5.8885 8.21385 6.07906 8.43161C6.26963 8.64938 6.51361 8.81378 6.787 8.90863C7.06039 9.00348 7.35376 9.02552 7.63825 8.97257C7.92274 8.91962 8.18854 8.79352 8.4095 8.60667L9.54283 9.362C9.15339 9.78595 8.6502 10.0889 8.0933 10.2347C7.53639 10.3805 6.9493 10.363 6.40208 10.1843C5.85486 10.0055 5.37061 9.67313 5.00713 9.22672C4.64365 8.78031 4.41628 8.23875 4.35216 7.66667H3.66683V6.33333H4.3515C4.4154 5.76096 4.64271 5.21907 5.00627 4.7724C5.36984 4.32573 5.85429 3.99315 6.40177 3.81438C6.94926 3.63561 7.53663 3.61821 8.09373 3.76426C8.65084 3.91031 9.15413 4.21363 9.5435 4.638L8.4095 5.39333C8.18854 5.20648 7.92274 5.08037 7.63825 5.02743C7.35376 4.97448 7.06039 4.99652 6.787 5.09137C6.51361 5.18622 6.26963 5.35062 6.07906 5.56838C5.8885 5.78615 5.75792 6.04978 5.70016 6.33333Z" fill="#1A205C"/>
</svg>
