<svg width="16" height="10" viewBox="0 0 16 10" fill="none" xmlns="http://www.w3.org/2000/svg">
<path d="M10.6667 4.33333C11.7734 4.33333 12.6601 3.44 12.6601 2.33333C12.6601 1.22667 11.7734 0.333332 10.6667 0.333332C9.56008 0.333332 8.66675 1.22667 8.66675 2.33333C8.66675 3.44 9.56008 4.33333 10.6667 4.33333ZM5.33341 4.33333C6.44008 4.33333 7.32675 3.44 7.32675 2.33333C7.32675 1.22667 6.44008 0.333332 5.33341 0.333332C4.22675 0.333332 3.33341 1.22667 3.33341 2.33333C3.33341 3.44 4.22675 4.33333 5.33341 4.33333ZM5.33341 5.66667C3.78008 5.66667 0.666748 6.44667 0.666748 8V9C0.666748 9.36667 0.966748 9.66667 1.33341 9.66667H9.33341C9.70008 9.66667 10.0001 9.36667 10.0001 9V8C10.0001 6.44667 6.88675 5.66667 5.33341 5.66667ZM10.6667 5.66667C10.4734 5.66667 10.2534 5.68 10.0201 5.7C10.0334 5.70667 10.0401 5.72 10.0467 5.72667C10.8067 6.28 11.3334 7.02 11.3334 8V9C11.3334 9.23333 11.2867 9.46 11.2134 9.66667H14.6667C15.0334 9.66667 15.3334 9.36667 15.3334 9V8C15.3334 6.44667 12.2201 5.66667 10.6667 5.66667Z" fill="#1A205C"/>
</svg>
