<svg width="17" height="16" viewBox="0 0 17 16" fill="none" xmlns="http://www.w3.org/2000/svg">
<path d="M7.71608 9.98493C7.36432 9.68342 7.21357 9.38191 6.96231 8.92965L6.86181 8.72865C6.66081 8.9799 6.40955 9.1809 6.10804 9.38191C5.90704 9.53266 5.65578 9.63317 5.35427 9.73367V9.78392C5.45478 11.593 6.15829 11.794 6.86181 11.995C7.21357 12.0955 7.61558 12.196 7.91709 12.4472C8.21859 12.196 8.6206 12.0955 8.97236 11.995C9.67588 11.794 10.4296 11.593 10.4799 9.78392V9.73367C10.1784 9.63317 9.92713 9.53266 9.72613 9.38191C9.42462 9.1809 9.17337 8.9799 8.97236 8.72865L8.87186 8.92965C8.6206 9.38191 8.46985 9.68342 8.11809 9.98493C7.91709 10.0854 7.76633 10.0854 7.71608 9.98493ZM6.86181 3.50251C6.71106 3.50251 6.61055 3.40201 6.61055 3.25126C6.61055 3.1005 6.71106 3 6.86181 3C7.31407 3 7.61558 3.201 7.81658 3.50251C8.01759 3.75377 8.06784 4.15578 8.11809 4.50754C8.92211 4.55779 9.67588 4.8593 10.1784 5.26131C10.7814 5.76382 11.1332 6.46734 11.1332 7.22111C11.1332 7.77387 11.1332 8.17588 11.2337 8.57789C11.2839 8.92965 11.4347 9.2814 11.6357 9.63316C11.6859 9.73366 11.6859 9.88442 11.5352 9.98493C11.4849 10.0352 11.3844 10.0352 11.3342 10.0352C11.1834 9.98492 11.0829 9.93467 10.9322 9.93467C10.8317 11.995 9.92713 12.2462 9.07286 12.4975C8.7211 12.598 8.31909 12.6985 8.06784 13C7.81658 12.6985 7.46482 12.598 7.06281 12.4975C6.20854 12.2462 5.30402 11.995 5.20352 9.93467C5.10302 9.98492 4.95226 10.0352 4.80151 10.0352C4.65075 10.0854 4.55025 9.98492 4.5 9.88442C4.5 9.83417 4.5 9.73367 4.55025 9.68342C4.75126 9.33166 4.85176 9.03015 4.90201 8.67839C4.95226 8.27638 5.00251 7.87437 5.00251 7.32161C5.00251 6.51759 5.35427 5.81407 5.95729 5.36181C6.51005 4.90955 7.21357 4.65829 8.01759 4.60804C8.01759 4.30653 7.91708 4.05527 7.81658 3.85427C7.26382 3.65326 7.11307 3.50251 6.86181 3.50251ZM7.36432 8.72865C7.51508 9.03015 7.66583 9.28141 7.81658 9.48241C8.01759 9.28141 8.11809 9.03015 8.26884 8.72865C8.36934 8.57789 8.46985 8.37688 8.57035 8.17588C8.57035 8.12563 8.6206 8.12563 8.67085 8.07538C8.77136 8.02513 8.92211 8.02513 9.02261 8.17588C9.22362 8.52764 9.47487 8.7789 9.87688 8.9799C10.1281 9.13066 10.4799 9.2814 10.8819 9.38191C10.7814 9.1809 10.7312 8.92965 10.6809 8.72865C10.6307 8.32664 10.5804 7.87437 10.5804 7.27135C10.5804 6.61809 10.2789 6.06533 9.82663 5.66332C9.32412 5.26131 8.6206 5.01005 7.81658 5.01005C7.01256 5.01005 6.30904 5.26131 5.80653 5.66332C5.30402 6.06533 5.05276 6.61809 5.05276 7.27135C5.05276 7.82412 5.05276 8.27638 4.95226 8.72865C4.90201 8.9799 4.85176 9.1809 4.75126 9.38191C5.15327 9.23115 5.45477 9.13066 5.75628 8.9799C6.10804 8.7789 6.40955 8.52764 6.61055 8.17588C6.61055 8.12563 6.6608 8.12563 6.71106 8.07538C6.81156 8.02513 6.96231 8.02513 7.06281 8.17588C7.21357 8.37688 7.31407 8.57789 7.36432 8.72865Z" fill="#1A205C"/>
<path d="M8.5 16C4.0816 16 0.5 12.4184 0.5 8C0.5 3.5816 4.0816 0 8.5 0C12.9184 0 16.5 3.5816 16.5 8C16.5 12.4184 12.9184 16 8.5 16ZM8.5 14.4C10.1974 14.4 11.8253 13.7257 13.0255 12.5255C14.2257 11.3253 14.9 9.69739 14.9 8C14.9 6.30261 14.2257 4.67475 13.0255 3.47452C11.8253 2.27428 10.1974 1.6 8.5 1.6C6.80261 1.6 5.17475 2.27428 3.97452 3.47452C2.77428 4.67475 2.1 6.30261 2.1 8C2.1 9.69739 2.77428 11.3253 3.97452 12.5255C5.17475 13.7257 6.80261 14.4 8.5 14.4ZM13.5556 4.07558L4.59063 13.0673C4.15333 12.7557 3.75598 12.3617 3.44438 11.9244L12.4244 2.94438C12.8617 3.25598 13.244 3.63828 13.5556 4.07558Z" fill="#1A205C"/>
</svg>
