<svg width="17" height="16" viewBox="0 0 17 16" fill="none" xmlns="http://www.w3.org/2000/svg">
<path d="M5.20351 12.4975H8.06784L7.81659 10.2864L7.51508 7.77387C7.51508 7.62312 7.61558 7.52261 7.71608 7.47236H8.97236V7.2211C8.97236 6.81909 8.6206 6.31658 8.26885 5.86432C7.91709 5.41206 7.56532 4.9598 7.46482 4.45728H6.4598C6.35929 4.9598 6.00753 5.41206 5.65577 5.86432C5.30401 6.31658 4.95226 6.81909 4.95226 7.2211V7.47236H6.20854C6.35929 7.47236 6.4598 7.57286 6.4598 7.72362V11.2412C6.4598 11.392 6.35929 11.4925 6.20854 11.4925H4.95226V12.2462C4.95226 12.2965 5.00251 12.397 5.00251 12.4472C5.10302 12.4472 5.15326 12.4975 5.20351 12.4975ZM4.95226 7.97487V10.9899H5.95728V7.97487H4.95226ZM8.21859 9.78392C8.97236 9.28141 9.37438 9.58292 9.82664 9.78392C10.0779 9.93468 10.3794 10.0854 10.7814 9.73367L10.9824 7.97487H9.27387H8.06784L8.21859 9.78392ZM10.7312 10.3869C10.2286 10.6382 9.92714 10.4372 9.57538 10.2362C9.27387 10.0352 8.92211 9.83418 8.3191 10.3367L8.57036 12.4975H10.5302L10.7312 10.3869ZM10.7312 13H8.36934H5.25377C5.05276 13 4.85176 12.8995 4.701 12.799C4.55025 12.6482 4.5 12.4975 4.5 12.2462V7.2211C4.5 6.61809 4.90201 6.11558 5.30402 5.56282C5.60553 5.16081 5.90704 4.7588 6.00754 4.40704C5.90704 4.35679 5.80653 4.30653 5.75628 4.25628C5.60553 4.10553 5.55528 3.95477 5.55528 3.75377C5.55528 3.55276 5.65578 3.35176 5.75628 3.201C5.90704 3.05025 6.05779 3 6.30905 3H7.81659C8.01759 3 8.21858 3.1005 8.36934 3.201C8.52009 3.35176 8.57036 3.50251 8.57036 3.75377C8.57036 3.95477 8.46984 4.15578 8.36934 4.30654C8.31909 4.35679 8.21858 4.45728 8.11808 4.45728C8.21858 4.80904 8.5201 5.21105 8.82161 5.61306C9.22362 6.16583 9.62562 6.66834 9.62562 7.27136V7.52261H11.3844C11.5352 7.52261 11.6357 7.62312 11.6357 7.77387L11.4347 9.93468L11.1332 12.799C10.9824 12.8995 10.8819 13 10.7312 13ZM7.71608 3.45226H6.20854C6.15829 3.45226 6.05779 3.50251 6.00754 3.50251C5.95729 3.55276 5.95728 3.60301 5.95728 3.70351C5.95728 3.75377 5.95729 3.80402 6.00754 3.85427C6.05779 3.90452 6.10804 3.90452 6.20854 3.90452H7.71608C7.76633 3.90452 7.86683 3.85427 7.86683 3.85427C7.91708 3.80402 7.91708 3.75377 7.91708 3.65327C7.91708 3.60302 7.86683 3.50251 7.86683 3.45226C7.86683 3.50251 7.81658 3.45226 7.71608 3.45226Z" fill="#1A205C"/>
<path d="M8.5 16C4.0816 16 0.5 12.4184 0.5 8C0.5 3.5816 4.0816 0 8.5 0C12.9184 0 16.5 3.5816 16.5 8C16.5 12.4184 12.9184 16 8.5 16ZM8.5 14.4C10.1974 14.4 11.8253 13.7257 13.0255 12.5255C14.2257 11.3253 14.9 9.69739 14.9 8C14.9 6.30261 14.2257 4.67475 13.0255 3.47452C11.8253 2.27428 10.1974 1.6 8.5 1.6C6.80261 1.6 5.17475 2.27428 3.97452 3.47452C2.77428 4.67475 2.1 6.30261 2.1 8C2.1 9.69739 2.77428 11.3253 3.97452 12.5255C5.17475 13.7257 6.80261 14.4 8.5 14.4ZM13.5556 4.07558L4.59063 13.0673C4.15333 12.7557 3.75598 12.3617 3.44438 11.9244L12.4244 2.94438C12.8617 3.25598 13.244 3.63828 13.5556 4.07558Z" fill="#1A205C"/>
</svg>
