<svg width="15" height="16" viewBox="0 0 15 16" fill="none" xmlns="http://www.w3.org/2000/svg">
<path d="M2.69473 9.93686C2.52631 9.76844 2.52631 9.51579 2.69473 9.34737C2.86316 9.17895 3.1158 9.17895 3.28422 9.34737C3.45264 9.51579 3.62105 9.68422 3.78947 9.85264C3.87368 9.85264 3.9579 9.76843 4.04211 9.76843C4.29474 9.60001 4.54737 9.43157 4.71579 9.17894C4.54737 8.92631 4.46316 8.67368 4.37894 8.42105C4.21052 7.91579 4.29473 7.32632 4.37894 6.82106C4.54737 6.31579 4.88421 5.81053 5.30527 5.47368C5.5579 5.30526 5.89474 5.13684 6.23159 5.05263C6.48422 4.96842 6.65263 5.13684 6.73684 5.38947C6.82105 5.6421 6.65264 5.81053 6.40001 5.89474C6.14737 5.97895 5.97896 6.06317 5.81053 6.14738C5.47369 6.40002 5.30526 6.73684 5.22105 7.07368C5.13684 7.41052 5.13684 7.83159 5.22105 8.25265C5.30526 8.50528 5.38948 8.7579 5.5579 8.92632C5.81053 9.26316 6.06316 9.51579 6.48421 9.76843C6.48421 9.76843 6.56842 9.76843 6.56842 9.85264C6.90527 10.0211 7.24211 10.1053 7.66316 10.1053C8.08422 10.1053 8.50526 10.0211 8.84211 9.85264C9.17895 9.68422 9.51579 9.34738 9.76843 9.01054C9.76843 8.92633 9.85263 8.92632 9.93684 8.84211C10.1053 8.75789 10.3579 8.75791 10.5263 9.01054C10.6947 9.34738 10.9474 9.60001 11.2842 9.76843C11.3684 9.76843 11.4526 9.85264 11.5368 9.85264C11.7053 9.68422 11.8737 9.51579 12.0421 9.34737C12.2105 9.17895 12.4632 9.17895 12.6316 9.34737C12.8 9.51579 12.8 9.76844 12.6316 9.93686L12.5474 10.021C13.0526 9.93684 13.4737 9.76843 13.8947 9.43159C14.3158 9.01054 14.4842 8.50526 14.4842 7.91578C14.4842 7.57894 14.4 7.24212 14.2316 6.98949C14.0632 6.65265 13.8947 6.39999 13.5579 6.23157C13.3895 6.14736 13.3053 5.89475 13.3895 5.72633C13.4737 5.64212 13.4737 5.47368 13.4737 5.38947C13.4737 5.30526 13.4737 5.13684 13.4737 5.05263C13.4737 4.54737 13.3053 4.12632 12.9684 3.87369C12.6316 3.53685 12.2105 3.36842 11.7895 3.36842C11.7053 3.36842 11.6211 3.36842 11.6211 3.36842C11.5368 3.36842 11.5368 3.36842 11.4526 3.36842C11.2 3.36842 11.0316 3.20001 10.9474 3.03158C10.8632 2.44211 10.5263 1.85264 10.1053 1.43159C9.68422 1.01054 9.09474 0.842105 8.42105 0.842105C7.74737 0.842105 7.1579 1.09475 6.65264 1.5158C6.23159 1.93686 5.89474 2.52633 5.89474 3.20002C5.89474 3.28423 5.89474 3.36842 5.81053 3.36842C5.72632 3.53684 5.47368 3.62106 5.22105 3.53685C5.13684 3.45264 5.05263 3.45263 4.88421 3.36842C4.8 3.36842 4.63159 3.28421 4.54738 3.28421C4.21053 3.28421 3.87369 3.45265 3.62106 3.62107C3.36842 3.8737 3.28422 4.12631 3.28422 4.54736C3.28422 4.63157 3.28422 4.80002 3.28422 4.88423C3.28422 4.96844 3.36842 5.05264 3.36842 5.13685C3.45263 5.22106 3.45264 5.30526 3.45264 5.38947C3.45264 5.6421 3.20001 5.81052 3.03158 5.81052H2.94737H2.86317C2.27369 5.81052 1.76843 6.06316 1.34737 6.40001C0.926321 6.82106 0.757902 7.32631 0.757902 7.91578C0.757902 8.50526 1.01053 9.01054 1.34737 9.43159C1.68422 9.76843 2.10526 10.021 2.69473 10.021V9.93686ZM8.42105 12.1263C8.42105 12.3789 8.25264 12.5474 8.08422 12.6316C7.83158 12.6316 7.66316 12.4632 7.57895 12.2947C7.57895 12.0421 7.32632 11.7053 7.07369 11.4526C6.82106 11.1158 6.48421 10.8632 6.14737 10.6947C6.06316 10.6947 6.06316 10.6105 5.97895 10.6105C5.64211 10.4421 5.38948 10.2737 5.13685 10.021C4.88422 10.2737 4.63158 10.4421 4.37894 10.6105C5.55789 11.8737 6.56842 13.3053 6.73684 15.2421H8.42105C8.58947 13.3895 9.51579 11.9579 10.779 10.6105C10.5263 10.4421 10.2737 10.2737 10.0211 10.021C9.76843 10.2737 9.5158 10.4421 9.17896 10.6105C8.7579 10.8632 8.33684 10.9474 7.83158 11.0316C8.16842 11.2842 8.42105 11.7895 8.42105 12.1263ZM8.84211 5.05263C8.58947 5.05263 8.42105 4.88421 8.42105 4.63158C8.42105 4.37895 8.58947 4.21053 8.84211 4.21053C9.34737 4.21053 9.85263 4.37895 10.2737 4.71579C10.6947 5.05264 10.9474 5.55789 10.9474 6.31579C10.9474 6.56842 10.779 6.73684 10.5263 6.73684C10.2737 6.73684 10.1053 6.56842 10.1053 6.31579C10.1053 5.81053 9.93685 5.4737 9.76843 5.30528C9.51579 5.13686 9.17895 5.05263 8.84211 5.05263ZM11.6211 10.8632C10.3579 12.2105 9.26316 13.6421 9.26316 15.5789C9.26316 15.8316 9.09474 16 8.84211 16H6.31579C6.06316 16 5.89474 15.8316 5.89474 15.5789C5.89474 13.6421 4.8 12.2105 3.53684 10.8632C3.36842 10.8632 3.11579 10.9474 2.94737 10.9474C2.10526 10.9474 1.43158 10.6105 0.842105 10.1053C0.336842 9.6 0 8.84211 0 8C0 7.15789 0.336842 6.48421 0.842105 5.89474C1.26316 5.47368 1.85263 5.13684 2.52632 5.05263C2.52632 4.88421 2.44211 4.8 2.44211 4.63158C2.44211 4.04211 2.69474 3.53685 3.03158 3.1158C3.45264 2.69475 3.9579 2.52632 4.54738 2.52632C4.7158 2.52632 4.88421 2.52632 5.05263 2.61053C5.22105 1.93685 5.55789 1.34737 6.06316 0.926321C6.65263 0.336847 7.49474 0 8.33685 0C9.17896 0 9.93686 0.336842 10.5263 0.842105C11.0316 1.26316 11.3684 1.85263 11.5368 2.52632H11.6211C12.2947 2.52632 12.9684 2.77894 13.3895 3.28421C13.8105 3.70526 14.1474 4.37895 14.1474 5.05263C14.1474 5.22105 14.1474 5.38948 14.0632 5.64212C14.0632 5.72633 14.0632 5.81053 13.9789 5.89474C14.2316 6.14737 14.4842 6.4 14.6526 6.73684C14.8211 7.15789 14.9895 7.57895 14.9895 8.08422C14.9895 8.92632 14.6526 9.60001 14.1474 10.1895C13.6421 10.6947 12.8842 11.0316 12.0421 11.0316C12.0421 10.9474 11.8737 10.8632 11.6211 10.8632Z" fill="#61C074"/>
</svg>
