<svg width="17" height="16" viewBox="0 0 17 16" fill="none" xmlns="http://www.w3.org/2000/svg">
<path d="M4.56983 15.202H12.3105C12.7893 15.202 13.9065 14.8828 14.7045 14.1646C15.1035 13.8454 15.4227 13.3666 15.5823 12.808H1.29801C1.37781 13.3666 1.77681 13.7656 2.17582 14.1646C2.97382 14.8828 4.09103 15.202 4.56983 15.202ZM9.35786 0.678302C9.19826 0.518701 9.19826 0.279302 9.35786 0.119701C9.51746 -0.0399003 9.75688 -0.0399003 9.91648 0.119701C10.9539 1.15711 10.4751 2.03491 9.99626 2.99251C9.67706 3.63092 9.35787 4.34913 9.91648 4.90773C10.0761 5.06733 10.0761 5.30673 9.91648 5.46633C9.75688 5.62593 9.51746 5.62593 9.35786 5.46633C8.32046 4.42893 8.79925 3.55112 9.27806 2.59351C9.67706 1.95511 9.99627 1.31671 9.35786 0.678302ZM6.96385 0.678302C6.80425 0.518701 6.80425 0.279302 6.96385 0.119701C7.12345 -0.0399003 7.36286 -0.0399003 7.52246 0.119701C8.55987 1.15711 8.08104 2.03491 7.60224 2.99251C7.28304 3.63092 6.96386 4.34913 7.52246 4.90773C7.68206 5.06733 7.68206 5.30673 7.52246 5.46633C7.36286 5.62593 7.12345 5.62593 6.96385 5.46633C5.92644 4.42893 6.40524 3.55112 6.88404 2.59351C7.28304 1.95511 7.60225 1.31671 6.96385 0.678302ZM13.7469 9.93517C13.5873 10.2544 13.5075 10.5736 13.4277 10.8928C13.3479 11.2918 13.2681 11.6908 13.2681 12.0898H14.7843C14.5449 11.212 14.2257 10.4938 13.7469 9.93517ZM12.4701 12.01C12.4701 11.5312 12.5499 11.1322 12.7095 10.6534C12.8691 10.1746 13.0287 9.69576 13.1883 9.21696C13.0287 9.05735 12.7893 8.81796 12.6297 8.65835C12.3105 8.41895 12.0711 8.17955 11.6721 8.01995C11.4327 8.57855 11.1933 9.29676 11.1135 9.93517C10.9539 10.6534 10.8741 11.2918 10.8741 11.9302H12.4701V12.01ZM10.0761 12.01C10.0761 11.2918 10.1559 10.5736 10.3155 9.85536C10.4751 9.13716 10.7145 8.41895 10.9539 7.78054C10.3155 7.54114 9.67707 7.38155 9.03867 7.30175C8.55986 8.01995 8.24065 8.81796 8.00124 9.69576C7.76184 10.4938 7.60224 11.3716 7.60224 12.0898H10.0761V12.01ZM6.80424 12.01C6.80424 11.1322 6.96384 10.2544 7.28304 9.37655C7.52245 8.65835 7.84165 7.94015 8.16085 7.22194C7.36285 7.22194 6.64464 7.38155 6.00623 7.70075C5.52743 8.41895 5.12843 9.13716 4.88903 9.93517C4.64963 10.6534 4.49003 11.3716 4.49003 12.0898H6.80424V12.01ZM3.69202 12.01C3.69202 11.2918 3.85163 10.414 4.17083 9.61596C4.33043 9.21696 4.49004 8.81795 4.64964 8.41895C4.56984 8.49875 4.41024 8.57855 4.33044 8.65835C3.29303 9.53616 2.57482 10.6534 2.17582 11.9302H3.69202V12.01ZM1.37781 12.01C1.77681 10.414 2.57482 9.05736 3.85163 8.09975C4.41024 7.62095 4.96882 7.30174 5.60723 6.98254C6.48503 6.58354 7.44265 6.42394 8.48005 6.42394C10.2357 6.42394 11.9115 7.06235 13.1883 8.09975C14.3853 9.05736 15.2631 10.4938 15.6621 12.01H16.1409C16.3803 12.01 16.5399 12.1696 16.5399 12.409C16.5399 13.3666 16.0611 14.1646 15.3429 14.7232C14.3853 15.5212 13.0287 16 12.3903 16H4.64964C4.01123 16 2.65461 15.601 1.69701 14.7232C1.0586 14.1646 0.5 13.3666 0.5 12.409C0.5 12.1696 0.659601 12.01 0.899003 12.01H1.37781Z" fill="#1A205C"/>
</svg>
