<svg width="16" height="16" viewBox="0 0 16 16" fill="none" xmlns="http://www.w3.org/2000/svg">
<path d="M0.9 16C0.66 16 0.5 15.84 0.5 15.6C0.5 15.36 0.66 15.2 0.9 15.2H1.3V11.6C1.3 11.28 1.46002 10.96 1.62002 10.72C1.86002 10.48 2.1 10.4 2.5 10.4H2.9V7.6C2.9 7.28 3.06002 6.96 3.22002 6.72C3.46002 6.48 3.7 6.4 4.1 6.4H4.5V4.4C4.5 4.08 4.66002 3.76 4.82002 3.52C5.06002 3.28 5.3 3.2 5.7 3.2H7.7V0.4C7.7 0.16 7.86 0 8.1 0C8.34 0 8.5 0.16 8.5 0.4V3.2H10.5C10.82 3.2 11.14 3.36 11.38 3.52C11.62 3.76 11.7 4 11.7 4.4V6.4H12.1C12.42 6.4 12.74 6.56 12.98 6.72C13.22 6.96 13.3 7.2 13.3 7.6V10.4H13.7C14.02 10.4 14.34 10.56 14.58 10.72C14.82 10.96 14.9 11.2 14.9 11.6V15.2H15.3C15.54 15.2 15.7 15.36 15.7 15.6C15.7 15.84 15.54 16 15.3 16H0.9ZM12.58 8.96C11.94 8.64 11.46 8.88 10.9 9.12C10.1 9.52 9.22001 9.92 7.94001 9.12C7.22001 8.64 6.66 8.88 6.1 9.2C5.46 9.52 4.74001 9.84 3.78 9.52V10.48H12.58V8.96ZM3.7 8.56C4.5 9.04 5.14 8.72 5.7 8.4C6.5 8 7.22001 7.68 8.34001 8.4C9.30001 8.96 9.94 8.72 10.5 8.4C11.14 8.08 11.7 7.83999 12.5 8.07999V7.52C12.5 7.44 12.42 7.28 12.42 7.2C12.34 7.12 12.26 7.12 12.1 7.12H4.1C4.02 7.12 3.86 7.2 3.78 7.2C3.7 7.28 3.7 7.36 3.7 7.52V8.56ZM14.18 13.36C13.22 12.48 12.58 12.96 11.86 13.52C10.82 14.32 9.62002 15.2 7.94001 13.44C6.98001 12.4 6.26001 12.96 5.46001 13.52C4.50001 14.24 3.54 14.96 2.18 14V15.12H14.18V13.36ZM2.1 12.96C3.3 14 4.1 13.44 4.9 12.8C5.94 12 6.90002 11.28 8.42002 12.8C9.70002 14 10.5 13.36 11.3 12.8C12.18 12.16 12.98 11.52 14.1 12.24V11.52C14.1 11.44 14.02 11.28 14.02 11.2C13.94 11.12 13.86 11.12 13.7 11.12H3.3H2.5C2.42 11.12 2.26 11.2 2.18 11.2C2.1 11.28 2.1 11.36 2.1 11.52V12.96ZM8.18001 3.92H5.78C5.70001 3.92 5.54001 4 5.46001 4C5.38001 4.08 5.38 4.16 5.38 4.32V6.32H10.98V4.32C10.98 4.24 10.9 4.08 10.9 4C10.82 3.92 10.74 3.92 10.58 3.92H8.18001Z" fill="#1A205C"/>
</svg>
