<svg width="12" height="16" viewBox="0 0 12 16" fill="none" xmlns="http://www.w3.org/2000/svg">
<path d="M1.62562 15.196H6.20855L5.80654 11.6583L5.32412 7.63819C5.32412 7.39699 5.48492 7.23618 5.64573 7.15578H7.65578V6.75377C7.65578 6.11055 7.09297 5.30653 6.53015 4.58291C5.96734 3.8593 5.40452 3.13567 5.24372 2.33165H3.63567C3.47487 3.13567 2.91205 3.8593 2.34924 4.58291C1.78642 5.30653 1.22361 6.11055 1.22361 6.75377V7.15578H3.23366C3.47487 7.15578 3.63567 7.31658 3.63567 7.55779V13.1859C3.63567 13.4271 3.47487 13.5879 3.23366 13.5879H1.22361V14.794C1.22361 14.8744 1.30402 15.0352 1.30402 15.1156C1.46482 15.1156 1.54522 15.196 1.62562 15.196ZM1.22361 7.9598V12.7839H2.83165V7.9598H1.22361ZM6.44975 10.8543C7.65578 10.0503 8.299 10.5327 9.02262 10.8543C9.42463 11.0955 9.90704 11.3367 10.5503 10.7739L10.8719 7.9598H8.13819H6.20855L6.44975 10.8543ZM10.4698 11.8191C9.66583 12.2211 9.18342 11.8995 8.62061 11.5779C8.1382 11.2563 7.57538 10.9347 6.61056 11.7387L7.01257 15.196H10.1482L10.4698 11.8191ZM10.4698 16H6.69094H1.70603C1.38442 16 1.06281 15.8392 0.821603 15.6784C0.580397 15.4372 0.5 15.196 0.5 14.794V6.75377C0.5 5.78894 1.14322 4.98493 1.78644 4.10051C2.26885 3.45729 2.75126 2.81407 2.91206 2.25126C2.75126 2.17086 2.59045 2.09045 2.51005 2.01005C2.26884 1.76884 2.18845 1.52764 2.18845 1.20603C2.18845 0.884422 2.34925 0.562809 2.51005 0.321603C2.75126 0.0803971 2.99247 0 3.39448 0H5.80654C6.12815 0 6.44974 0.160799 6.69094 0.321603C6.93215 0.562809 7.01257 0.80402 7.01257 1.20603C7.01257 1.52764 6.85175 1.84925 6.69094 2.09046C6.61054 2.17086 6.44974 2.33165 6.28893 2.33165C6.44974 2.89447 6.93217 3.53769 7.41458 4.1809C8.0578 5.06533 8.70099 5.86935 8.70099 6.83417V7.23618H11.5151C11.7563 7.23618 11.9171 7.39699 11.9171 7.63819L11.5955 11.0955L11.1131 15.6784C10.8718 15.8392 10.7111 16 10.4698 16ZM5.64573 0.723613H3.23366C3.15326 0.723613 2.99246 0.80402 2.91206 0.80402C2.83166 0.884422 2.83165 0.964819 2.83165 1.12562C2.83165 1.20603 2.83166 1.28643 2.91206 1.36683C2.99246 1.44723 3.07286 1.44724 3.23366 1.44724H5.64573C5.72613 1.44724 5.88692 1.36683 5.88692 1.36683C5.96732 1.28643 5.96733 1.20603 5.96733 1.04523C5.96733 0.964827 5.88692 0.804015 5.88692 0.723613C5.88692 0.804015 5.80653 0.723613 5.64573 0.723613Z" fill="#1A205C"/>
</svg>
