<svg width="16" height="16" viewBox="0 0 16 16" fill="none" xmlns="http://www.w3.org/2000/svg">
<path d="M3.19473 9.93686C3.02631 9.76844 3.02631 9.51579 3.19473 9.34737C3.36316 9.17895 3.6158 9.17895 3.78422 9.34737C3.95264 9.51579 4.12105 9.68422 4.28947 9.85264C4.37368 9.85264 4.4579 9.76843 4.54211 9.76843C4.79474 9.60001 5.04737 9.43157 5.21579 9.17894C5.04737 8.92631 4.96316 8.67368 4.87894 8.42105C4.71052 7.91579 4.79473 7.32632 4.87894 6.82106C5.04737 6.31579 5.38421 5.81053 5.80527 5.47368C6.0579 5.30526 6.39474 5.13684 6.73159 5.05263C6.98422 4.96842 7.15263 5.13684 7.23684 5.38947C7.32105 5.6421 7.15264 5.81053 6.90001 5.89474C6.64737 5.97895 6.47896 6.06317 6.31053 6.14738C5.97369 6.40002 5.80526 6.73684 5.72105 7.07368C5.63684 7.41052 5.63684 7.83159 5.72105 8.25265C5.80526 8.50528 5.88948 8.7579 6.0579 8.92632C6.31053 9.26316 6.56316 9.51579 6.98421 9.76843C6.98421 9.76843 7.06842 9.76843 7.06842 9.85264C7.40527 10.0211 7.74211 10.1053 8.16316 10.1053C8.58422 10.1053 9.00526 10.0211 9.3421 9.85264C9.67895 9.68422 10.0158 9.34738 10.2684 9.01054C10.2684 8.92633 10.3526 8.92632 10.4368 8.8421C10.6053 8.75789 10.8579 8.75791 11.0263 9.01054C11.1947 9.34738 11.4474 9.60001 11.7842 9.76843C11.8684 9.76843 11.9526 9.85264 12.0368 9.85264C12.2053 9.68422 12.3737 9.51579 12.5421 9.34737C12.7105 9.17895 12.9632 9.17895 13.1316 9.34737C13.3 9.51579 13.3 9.76844 13.1316 9.93686L13.0474 10.021C13.5526 9.93684 13.9737 9.76843 14.3947 9.43159C14.8158 9.01054 14.9842 8.50526 14.9842 7.91578C14.9842 7.57894 14.9 7.24212 14.7316 6.98949C14.5632 6.65265 14.3947 6.39999 14.0579 6.23157C13.8895 6.14736 13.8053 5.89475 13.8895 5.72633C13.9737 5.64212 13.9737 5.47368 13.9737 5.38947C13.9737 5.30526 13.9737 5.13684 13.9737 5.05263C13.9737 4.54737 13.8053 4.12632 13.4684 3.87369C13.1316 3.53685 12.7105 3.36842 12.2895 3.36842C12.2053 3.36842 12.1211 3.36842 12.1211 3.36842C12.0368 3.36842 12.0368 3.36842 11.9526 3.36842C11.7 3.36842 11.5316 3.20001 11.4474 3.03158C11.3632 2.44211 11.0263 1.85264 10.6053 1.43159C10.1842 1.01054 9.59474 0.842105 8.92105 0.842105C8.24737 0.842105 7.6579 1.09475 7.15264 1.5158C6.73159 1.93686 6.39474 2.52633 6.39474 3.20002C6.39474 3.28423 6.39474 3.36842 6.31053 3.36842C6.22632 3.53684 5.97368 3.62106 5.72105 3.53685C5.63684 3.45264 5.55263 3.45263 5.38421 3.36842C5.3 3.36842 5.13159 3.28421 5.04738 3.28421C4.71053 3.28421 4.37369 3.45265 4.12106 3.62107C3.86842 3.8737 3.78422 4.12631 3.78422 4.54736C3.78422 4.63157 3.78422 4.80002 3.78422 4.88423C3.78422 4.96844 3.86842 5.05264 3.86842 5.13685C3.95263 5.22106 3.95264 5.30526 3.95264 5.38947C3.95264 5.6421 3.70001 5.81052 3.53158 5.81052H3.44737H3.36317C2.77369 5.81052 2.26843 6.06316 1.84737 6.40001C1.42632 6.82106 1.2579 7.32631 1.2579 7.91578C1.2579 8.50526 1.51053 9.01054 1.84737 9.43159C2.18422 9.76843 2.60526 10.021 3.19473 10.021V9.93686ZM8.92105 12.1263C8.92105 12.3789 8.75264 12.5474 8.58422 12.6316C8.33158 12.6316 8.16316 12.4632 8.07895 12.2947C8.07895 12.0421 7.82632 11.7053 7.57369 11.4526C7.32106 11.1158 6.98421 10.8632 6.64737 10.6947C6.56316 10.6947 6.56316 10.6105 6.47895 10.6105C6.14211 10.4421 5.88948 10.2737 5.63685 10.021C5.38422 10.2737 5.13158 10.4421 4.87894 10.6105C6.05789 11.8737 7.06842 13.3053 7.23684 15.2421H8.92105C9.08947 13.3895 10.0158 11.9579 11.2789 10.6105C11.0263 10.4421 10.7737 10.2737 10.5211 10.021C10.2684 10.2737 10.0158 10.4421 9.67896 10.6105C9.2579 10.8632 8.83684 10.9474 8.33158 11.0316C8.66842 11.2842 8.92105 11.7895 8.92105 12.1263ZM9.3421 5.05263C9.08947 5.05263 8.92105 4.88421 8.92105 4.63158C8.92105 4.37895 9.08947 4.21053 9.3421 4.21053C9.84737 4.21053 10.3526 4.37895 10.7737 4.71579C11.1947 5.05264 11.4474 5.55789 11.4474 6.31579C11.4474 6.56842 11.279 6.73684 11.0263 6.73684C10.7737 6.73684 10.6053 6.56842 10.6053 6.31579C10.6053 5.81053 10.4368 5.4737 10.2684 5.30528C10.0158 5.13686 9.67895 5.05263 9.3421 5.05263ZM12.1211 10.8632C10.8579 12.2105 9.76316 13.6421 9.76316 15.5789C9.76316 15.8316 9.59474 16 9.3421 16H6.81579C6.56316 16 6.39474 15.8316 6.39474 15.5789C6.39474 13.6421 5.3 12.2105 4.03684 10.8632C3.86842 10.8632 3.61579 10.9474 3.44737 10.9474C2.60526 10.9474 1.93158 10.6105 1.34211 10.1053C0.836842 9.6 0.5 8.8421 0.5 8C0.5 7.15789 0.836842 6.48421 1.34211 5.89474C1.76316 5.47368 2.35263 5.13684 3.02632 5.05263C3.02632 4.88421 2.94211 4.8 2.94211 4.63158C2.94211 4.04211 3.19474 3.53685 3.53158 3.1158C3.95264 2.69475 4.4579 2.52632 5.04738 2.52632C5.2158 2.52632 5.38421 2.52632 5.55263 2.61053C5.72105 1.93685 6.05789 1.34737 6.56316 0.926321C7.15263 0.336847 7.99474 0 8.83685 0C9.67896 0 10.4369 0.336842 11.0263 0.842105C11.5316 1.26316 11.8684 1.85263 12.0368 2.52632H12.1211C12.7947 2.52632 13.4684 2.77894 13.8895 3.28421C14.3105 3.70526 14.6474 4.37895 14.6474 5.05263C14.6474 5.22105 14.6474 5.38948 14.5632 5.64212C14.5632 5.72633 14.5632 5.81053 14.4789 5.89474C14.7316 6.14737 14.9842 6.4 15.1526 6.73684C15.3211 7.15789 15.4895 7.57895 15.4895 8.08422C15.4895 8.92632 15.1526 9.60001 14.6474 10.1895C14.1421 10.6947 13.3842 11.0316 12.5421 11.0316C12.5421 10.9474 12.3737 10.8632 12.1211 10.8632Z" fill="#1A205C"/>
</svg>
