<svg width="17" height="16" viewBox="0 0 17 16" fill="none" xmlns="http://www.w3.org/2000/svg">
<path d="M12.9816 3.21524C13.2254 3.21524 13.388 3.37781 13.388 3.62166C13.388 3.86551 13.2254 4.02808 12.9816 4.02808C11.5998 4.02808 11.4372 4.92219 11.2746 5.81631C11.0308 7.03557 10.7869 8.33613 8.51097 8.49869H8.4297C7.12915 8.57998 6.96659 9.3928 6.80402 10.2869C6.56017 11.5062 6.31631 12.8067 4.04036 12.9693C3.79651 12.9693 3.63394 12.8067 3.63394 12.5629C3.63394 12.319 3.79651 12.1565 4.04036 12.1565C5.66604 12.0752 5.90989 11.0185 6.07246 10.1244C6.31631 8.90511 6.56016 7.76714 8.51097 7.68586C10.1367 7.60457 10.3805 6.54788 10.5431 5.65376C10.7869 4.4345 11.0308 3.29653 12.9816 3.21524ZM15.9078 4.51576C16.0704 5.65374 16.0704 6.79172 15.8265 7.84841C15.4201 9.71794 14.4447 11.4249 13.0629 12.8067C11.681 14.1073 9.97408 15.0827 8.10455 15.4078C7.04786 15.5704 5.99117 15.6517 4.8532 15.4078C3.95908 16.0581 2.98367 16.1394 2.25212 15.8142C1.8457 15.6517 1.52057 15.4891 1.27671 15.2452C1.03286 15.0014 0.789008 14.6762 0.62644 14.2698C0.382589 13.5383 0.463878 12.5629 1.11415 11.6688C0.870297 10.6121 0.951581 9.4741 1.11415 8.41741C1.43928 6.54788 2.41469 4.84091 3.71523 3.45908C5.01577 2.07726 6.72274 1.10186 8.67355 0.695437C9.73024 0.451586 10.8682 0.451581 12.0062 0.614148C12.9003 -0.0361225 13.8757 -0.117411 14.6886 0.12644C15.095 0.289008 15.4201 0.451586 15.664 0.695437C15.9078 0.939289 16.1517 1.26441 16.2329 1.67083C16.6394 2.64624 16.5581 3.62164 15.9078 4.51576ZM5.74733 14.7575C6.56016 14.8388 7.29172 14.7575 8.02328 14.6762C9.73024 14.3511 11.2746 13.457 12.5752 12.2377C13.7944 11.0185 14.6886 9.4741 15.095 7.68586C15.2575 6.87302 15.3388 6.14144 15.2575 5.3286L5.74733 14.7575ZM11.3559 1.42699C10.5431 1.3457 9.73024 1.427 8.99868 1.58956C7.29172 1.9147 5.66604 2.89009 4.44678 4.10934C3.22752 5.3286 2.3334 6.95429 2.00826 8.66125C1.8457 9.3928 1.8457 10.2057 1.92699 10.9372L11.3559 1.42699ZM4.93449 14.3511L14.8511 4.4345C15.664 3.62166 15.8265 2.72752 15.664 2.07725C15.5827 1.8334 15.4201 1.58955 15.2575 1.42699C15.095 1.26442 14.8511 1.10185 14.6073 1.02057C13.957 0.776716 13.0629 0.939279 12.25 1.75212L2.33341 11.6688C1.52057 12.4816 1.35799 13.2944 1.60184 13.9447C1.68313 14.1885 1.8457 14.4324 2.00826 14.595C2.17083 14.7576 2.41469 14.9201 2.65854 15.0014C3.22752 15.3265 4.12165 15.164 4.93449 14.3511Z" fill="#1A205C"/>
</svg>
