<svg width="11" height="16" viewBox="0 0 11 16" fill="none" xmlns="http://www.w3.org/2000/svg">
<path d="M3.46902 9.95023L5.71585 14.7649L7.96268 9.95023C7.24048 10.2712 6.51829 10.4317 5.71585 10.4317C4.91341 10.4317 4.11097 10.2712 3.46902 9.95023ZM5.95658 4.01219C6.19731 4.09244 6.3578 4.17267 6.51829 4.33316C6.75902 4.57389 6.83926 4.89487 6.83926 5.1356C6.83926 5.45658 6.75902 5.77756 6.51829 6.01829C6.27756 6.25902 5.95658 6.33926 5.6356 6.33926C5.31462 6.33926 4.99366 6.25902 4.75293 6.01829C4.51219 5.77756 4.43194 5.45658 4.43194 5.1356C4.43194 4.97511 4.43195 4.89487 4.51219 4.73438C4.67268 3.93194 5.07389 3.45048 5.6356 3.20975C5.87633 3.12951 6.19731 3.04926 6.43804 3.04926C6.67877 3.04926 6.99975 3.12951 7.24048 3.20975C7.88243 3.53073 8.44413 4.17267 8.44413 5.1356C8.44413 6.49974 7.72194 7.38244 6.67877 7.70341C5.95658 7.94414 5.15414 7.94415 4.35171 7.78366C3.54927 7.54293 2.82707 7.06146 2.34561 6.41951C1.70366 5.53682 1.46292 4.33317 1.86414 2.80853C1.46292 3.45048 1.22219 4.25292 1.22219 5.1356C1.22219 6.33926 1.70366 7.46267 2.5061 8.2651C3.30853 9.06754 4.43194 9.54901 5.6356 9.54901C6.83926 9.54901 7.96268 9.06754 8.76512 8.2651C9.56756 7.46267 10.049 6.33926 10.049 5.1356C10.049 3.93194 9.56756 2.80853 8.76512 2.0061C7.96268 1.20366 6.83926 0.72219 5.6356 0.72219C4.75292 0.72219 3.95048 0.962936 3.30853 1.36415C2.26536 3.45049 2.42585 4.97511 3.0678 5.93804C3.46902 6.49974 4.03073 6.82072 4.67268 7.06145C5.31463 7.22193 5.95658 7.22193 6.43804 7.06145C7.16023 6.82072 7.6417 6.17877 7.6417 5.21585C7.6417 4.65414 7.32073 4.25293 6.91951 4.09244C6.75902 4.0122 6.59853 4.01219 6.43804 4.01219C6.27755 3.93195 6.11707 3.93195 5.95658 4.01219ZM5.39488 4.89488C5.39488 4.89488 5.31463 4.97511 5.31463 5.05535C5.31463 5.13559 5.31463 5.21585 5.31463 5.2961C5.31463 5.37634 5.39488 5.45657 5.39488 5.45657C5.47512 5.53681 5.55536 5.53682 5.71585 5.53682C5.79609 5.53682 5.95658 5.53681 6.03682 5.45657C6.11706 5.37633 6.11707 5.29609 6.11707 5.1356C6.11707 5.05536 6.11706 4.97512 6.03682 4.89488C5.95658 4.81463 5.87634 4.81463 5.71585 4.81463C5.55536 4.81463 5.47512 4.81463 5.39488 4.89488ZM9.24657 8.98732L6.03682 15.808C6.03682 15.8883 5.95658 15.9685 5.87633 15.9685C5.71585 16.0488 5.47512 15.9685 5.31463 15.808L2.18513 9.06754C2.10488 8.9873 2.02463 8.98731 2.02463 8.90707C1.0617 7.94414 0.5 6.66024 0.5 5.21585C0.5 3.77146 1.0617 2.48755 2.02463 1.52463C2.98755 0.561702 4.27146 0 5.71585 0C7.16024 0 8.44414 0.561702 9.40707 1.52463C10.37 2.48755 10.9317 3.77146 10.9317 5.21585C10.9317 6.66024 10.37 7.94414 9.40707 8.90707C9.32683 8.90707 9.32682 8.98732 9.24657 8.98732Z" fill="#1A205C"/>
</svg>
