<svg width="17" height="16" viewBox="0 0 17 16" fill="none" xmlns="http://www.w3.org/2000/svg">
<path d="M2.58657 4.8V0.4C2.58657 0.16 2.74657 0 2.98657 0H14.9866C15.2266 0 15.3866 0.16 15.3866 0.4V4.8H16.5866C16.8266 4.8 16.9866 4.96 16.9866 5.2V5.27998L15.3866 15.68C15.3866 15.84 15.1466 16 14.9866 16H2.98657C2.74657 16 2.58657 15.84 2.58657 15.68L0.986572 5.27998C0.986572 5.03998 1.06657 4.88 1.30657 4.8H1.38657H2.58657ZM14.9866 5.6H12.5866H5.38657H1.86655L3.30657 15.2H14.6666L16.1066 5.6H14.9866ZM7.78657 8C7.54657 8 7.38657 7.84 7.38657 7.6C7.38657 7.36 7.54657 7.2 7.78657 7.2H10.1866C10.4266 7.2 10.5866 7.36 10.5866 7.6C10.5866 7.84 10.4266 8 10.1866 8H7.78657ZM7.78657 3.2C7.22657 3.2 6.74656 3.43999 6.34656 3.75999C6.10656 3.99999 5.86657 4.4 5.78657 4.8H7.38657C7.46657 4.16 7.78657 3.68 8.18657 3.2C8.10657 3.2 7.94657 3.2 7.78657 3.2ZM5.86655 3.2C6.34655 2.72 7.06655 2.4 7.86655 2.4C8.10655 2.4 8.34657 2.39998 8.58657 2.47998C8.74657 2.55998 8.90655 2.55999 9.06655 2.63999C9.46655 2.47999 9.86655 2.4 10.2666 2.4C11.0666 2.4 11.7066 2.72 12.2666 3.2C12.6666 3.6 12.9866 4.16 13.0666 4.8H14.6666V0.8H3.46655V4.8H5.06655C5.14655 4.16 5.38655 3.6 5.86655 3.2ZM10.1866 3.2C9.78657 3.2 9.38655 3.36 9.06655 3.6C8.98655 3.68 8.90657 3.67999 8.90657 3.75999L8.82656 3.83999C8.58656 4.07999 8.34655 4.47998 8.26655 4.87998H12.1866C12.1066 4.47998 11.9466 4.15999 11.6266 3.83999C11.3066 3.35999 10.7466 3.2 10.1866 3.2Z" fill="white"/>
</svg>
