<svg width="14" height="16" viewBox="0 0 14 16" fill="none" xmlns="http://www.w3.org/2000/svg">
<path d="M5.50172 3.95961V3.8788C5.58253 3.63638 5.66334 3.39396 5.66334 3.15153H5.42088C4.93603 3.15153 4.45119 3.23233 3.96635 3.31313C3.4815 3.39394 3.07748 3.55556 2.67344 3.71717C2.43101 3.79798 2.26937 3.9596 2.18856 4.12121C2.02694 4.28283 1.94615 4.52526 1.94615 4.68688C1.94615 4.8485 1.94616 5.0909 2.10777 5.25252C2.18858 5.41414 2.26941 5.57575 2.43102 5.65656C2.67345 5.81818 2.83504 6.14143 2.91585 6.38385C2.99666 6.62628 3.07748 6.78788 3.07748 7.03031H4.37039L5.50172 3.95961ZM13.5825 9.53536C13.8249 9.53536 13.9866 9.69698 13.9866 9.9394C13.9866 10.1818 13.8249 10.3434 13.5825 10.3434H12.2088C12.0472 11.8788 11.8856 13.4141 11.7239 14.9495C11.7239 15.2727 11.5623 15.5152 11.3199 15.6768C11.0775 15.8384 10.8351 16 10.5118 16H2.18856C1.86533 16 1.6229 15.9192 1.38048 15.6768C1.13806 15.5152 1.05725 15.1919 0.976441 14.9495L0.329987 8.40405V8.32324C0.329987 8.00001 0.410814 7.75758 0.653238 7.51516C0.814854 7.27274 1.13806 7.19193 1.38048 7.11112H1.46132C1.46132 7.11112 1.4613 7.11112 1.54211 7.11112H2.18856C2.18856 7.03031 2.10777 6.8687 2.10777 6.78789C2.02696 6.62628 1.94614 6.46466 1.78452 6.38385C1.5421 6.22224 1.3805 5.9798 1.29969 5.73737C1.13808 5.41414 1.05728 5.09092 1.05728 4.76769C1.05728 4.44446 1.21889 4.04041 1.46132 3.71717C1.62293 3.47475 1.86533 3.31315 2.18856 3.15153C2.67341 2.90911 3.15828 2.74749 3.72393 2.66668C4.28959 2.58587 4.77446 2.50505 5.2593 2.42424H5.42088C5.34007 2.18182 5.34009 1.9394 5.34009 1.69697C5.34009 1.37374 5.42089 1.0505 5.58251 0.80808C5.74412 0.565656 5.98657 0.323242 6.3098 0.161626C6.55222 0.0808179 6.95625 0 7.36029 0C7.84514 0 8.33 0.0808179 8.73404 0.161626C9.13808 0.242434 9.62291 0.404055 10.0269 0.646479C10.5118 0.888903 10.9158 1.05051 11.2391 1.29293C11.6431 1.53536 11.9664 1.85859 12.3704 2.18183C12.6936 2.50506 12.8552 2.74749 13.0169 3.07072C13.1785 3.47476 13.1784 3.87879 13.0976 4.20203C13.0168 4.52526 12.8552 4.8485 12.6128 5.09092C12.4512 5.25254 12.2088 5.41415 11.9664 5.49496C11.8047 5.57577 11.7239 5.65657 11.5623 5.81819C11.4007 6.06061 11.2391 6.30303 11.1583 6.54545L10.9159 7.19193H11.1583C11.1583 7.19193 11.1583 7.19193 11.2391 7.19193H11.3199C11.6431 7.19193 11.8855 7.35355 12.0471 7.59597C12.2088 7.8384 12.3704 8.08082 12.3704 8.40405C12.3704 8.80809 12.2896 9.21213 12.2896 9.61617H13.5825V9.53536ZM11.1583 7.9192H1.54211H1.46132C1.38051 7.9192 1.29971 8.00001 1.2189 8.00001C1.1381 8.08082 1.13807 8.16162 1.13807 8.24243L1.78452 14.7879C1.78452 14.8687 1.86536 14.9495 1.86536 15.0303C1.94617 15.1111 2.02696 15.1111 2.10777 15.1111H10.431C10.5118 15.1111 10.5926 15.1111 10.6734 15.0303C10.7542 14.9495 10.7542 14.8687 10.7542 14.7879C10.9159 12.7677 11.4007 10.101 11.4007 8.24243C11.4007 8.16162 11.4007 8.08082 11.3199 8.00001C11.4007 7.9192 11.3199 7.9192 11.1583 7.9192ZM6.47142 2.58587C6.55223 2.82829 6.55223 3.07071 6.47142 3.31313C6.47142 3.55556 6.39061 3.79798 6.3098 4.0404L5.2593 6.86868H10.1886L10.5118 5.899C10.6734 5.57577 10.835 5.25253 10.9967 4.92929C11.1583 4.68687 11.4815 4.44446 11.7239 4.36365C11.8856 4.28284 11.9664 4.20202 12.128 4.12121C12.2896 3.9596 12.3704 3.79798 12.4512 3.63636C12.532 3.47474 12.4512 3.23233 12.3704 2.98991C12.2896 2.82829 12.128 2.58588 11.9664 2.34345C11.6431 2.02022 11.3199 1.7778 10.9967 1.53537C10.6734 1.29295 10.2694 1.13132 9.86532 0.969706C9.46128 0.80809 9.05724 0.646474 8.6532 0.565666C8.24916 0.484858 7.92593 0.40404 7.44108 0.40404C7.19866 0.40404 6.95624 0.404045 6.79463 0.484853C6.63301 0.565661 6.47139 0.646464 6.39059 0.80808C6.30978 0.969696 6.22896 1.13132 6.22896 1.29293C6.22896 1.53536 6.30978 1.7778 6.39059 1.93941C6.39059 2.34345 6.39062 2.42425 6.47142 2.58587Z" fill="#9ADA67"/>
</svg>
