<svg width="12" height="16" viewBox="0 0 12 16" fill="none" xmlns="http://www.w3.org/2000/svg">
<path d="M1.6 15.2H10.48L11.2 5.6H9.68001C9.44001 5.92 9.04 6.24 8.64 6.48C8.48 6.56 8.32 6.64002 8.16 6.72002C7.76 6.88002 7.36 7.04002 6.96 7.12002C6.64 7.20002 6.32 7.2 6 7.2C5.76 7.2 5.52 7.20002 5.28 7.12002C4.8 7.04002 4.32 6.88002 3.84 6.72002C3.76 6.64002 3.68 6.64001 3.6 6.56001C3.12 6.32001 2.72 6 2.4 5.6H1.04L1.6 15.2ZM6 8.8C6.4 8.8 6.72 8.88001 6.96 9.04001C7.2 9.20001 7.44 9.36 7.6 9.6H8.4C8.64 9.6 8.8 9.76 8.8 10V11.6C8.8 11.84 8.64 12 8.4 12H7.6C7.44 12.24 7.2 12.4 6.96 12.56C6.64 12.72 6.32 12.8 6 12.8C5.6 12.8 5.28 12.72 5.04 12.56C4.8 12.4 4.64 12.24 4.4 12H3.6C3.36 12 3.2 11.84 3.2 11.6V10C3.2 9.76 3.36 9.6 3.6 9.6H4.4C4.56 9.36 4.8 9.20001 5.04 9.04001C5.36 8.88001 5.68 8.8 6 8.8ZM6.64 9.76001C6.48 9.68001 6.24 9.6 6 9.6C5.76 9.6 5.6 9.68001 5.36 9.76001C5.2 9.84001 5.04 10 4.96 10.16C4.88 10.32 4.72 10.4 4.64 10.4H4V11.2H4.64C4.8 11.2 4.88 11.28 4.96 11.44C5.04 11.6 5.2 11.76 5.44 11.92C5.6 12 5.84 12.08 6.08 12.08C6.32 12.08 6.48 12 6.72 11.92C6.88 11.84 7.04 11.68 7.12 11.52C7.2 11.36 7.36 11.28 7.44 11.28H8.08001V10.48H7.44C7.28 10.48 7.2 10.4 7.12 10.24C6.96 10 6.8 9.84001 6.64 9.76001ZM1.6 4.8V2.8C1.6 2.56 1.76 2.4 2 2.4H3.2V1.2C3.2 0.96 3.36 0.8 3.6 0.8H5.2C5.44 0.8 5.6 0.96 5.6 1.2V3.2H6.4V0.4C6.4 0.16 6.56 0 6.8 0H8.4C8.64 0 8.8 0.16 8.8 0.4V2.4H10C10.24 2.4 10.4 2.56 10.4 2.8V4.8H11.6C11.84 4.8 12 5.04 12 5.2L11.2 15.6C11.2 15.84 11.04 16 10.8 16H1.2C0.96 16 0.8 15.84 0.8 15.6L0 5.2C0 4.96 0.16 4.8 0.4 4.8H1.6ZM9.6 4.8V3.2H8.8V5.36001C8.88 5.28001 9.04 5.12001 9.12 5.04001C9.2 4.96001 9.28 4.88 9.44 4.88H9.6V4.8ZM8 5.92002V0.8H7.2V6.24001C7.44 6.16001 7.6 6.08 7.76 6C7.92 6 8 5.92002 8 5.92002ZM6.4 6.4V4H5.6V6.4C5.68 6.4 5.84 6.4 5.92 6.4C6.08 6.4 6.24 6.4 6.4 6.4ZM4.8 6.24001V1.6H4V6C4.32 6.16 4.56 6.24001 4.8 6.24001ZM3.2 5.52002V3.2H2.4V4.8C2.48 4.8 2.64 4.88001 2.72 4.96001C2.88 5.20001 3.04 5.36002 3.2 5.52002Z" fill="white"/>
</svg>
