<svg width="11" height="16" viewBox="0 0 11 16" fill="none" xmlns="http://www.w3.org/2000/svg">
<path d="M3.00894 9.95023L5.25577 14.7649L7.5026 9.95023C6.7804 10.2712 6.0582 10.4317 5.25577 10.4317C4.45333 10.4317 3.65089 10.2712 3.00894 9.95023ZM5.4965 4.01219C5.73723 4.09244 5.89772 4.17267 6.0582 4.33316C6.29894 4.57389 6.37917 4.89487 6.37917 5.1356C6.37917 5.45658 6.29894 5.77756 6.0582 6.01829C5.81747 6.25902 5.49649 6.33926 5.17552 6.33926C4.85454 6.33926 4.53357 6.25902 4.29284 6.01829C4.05211 5.77756 3.97186 5.45658 3.97186 5.1356C3.97186 4.97511 3.97186 4.89487 4.05211 4.73438C4.2126 3.93194 4.61381 3.45048 5.17552 3.20975C5.41625 3.12951 5.73722 3.04926 5.97796 3.04926C6.21869 3.04926 6.53966 3.12951 6.78039 3.20975C7.42234 3.53073 7.98405 4.17267 7.98405 5.1356C7.98405 6.49975 7.26186 7.38244 6.21869 7.70341C5.4965 7.94414 4.69406 7.94415 3.89162 7.78366C3.08919 7.54293 2.36699 7.06146 1.88553 6.41951C1.24358 5.53682 1.00284 4.33317 1.40406 2.80853C1.00284 3.45048 0.762107 4.25292 0.762107 5.1356C0.762107 6.33926 1.24357 7.46267 2.04601 8.2651C2.84845 9.06754 3.97186 9.54901 5.17552 9.54901C6.37917 9.54901 7.5026 9.06754 8.30503 8.2651C9.10747 7.46267 9.58893 6.33926 9.58893 5.1356C9.58893 3.93194 9.10747 2.80853 8.30503 2.0061C7.5026 1.20366 6.37917 0.72219 5.17552 0.72219C4.29284 0.72219 3.4904 0.962936 2.84845 1.36415C1.80528 3.45049 1.96577 4.97511 2.60772 5.93804C3.00894 6.49974 3.57064 6.82072 4.21259 7.06145C4.85454 7.22193 5.49649 7.22193 5.97796 7.06145C6.70015 6.82072 7.18161 6.17877 7.18161 5.21585C7.18161 4.65414 6.86064 4.25293 6.45942 4.09244C6.29894 4.0122 6.13844 4.01219 5.97796 4.01219C5.81747 3.93195 5.65699 3.93195 5.4965 4.01219ZM4.9348 4.89488C4.9348 4.89488 4.85455 4.97511 4.85455 5.05535C4.85455 5.1356 4.85455 5.21585 4.85455 5.2961C4.85455 5.37634 4.9348 5.45657 4.9348 5.45657C5.01504 5.53681 5.09528 5.53682 5.25577 5.53682C5.33601 5.53682 5.49649 5.53681 5.57674 5.45657C5.65698 5.37633 5.65699 5.29609 5.65699 5.1356C5.65699 5.05536 5.65698 4.97512 5.57674 4.89488C5.49649 4.81463 5.41625 4.81463 5.25577 4.81463C5.09528 4.81463 5.01504 4.81463 4.9348 4.89488ZM8.78649 8.98732L5.57674 15.808C5.57674 15.8883 5.4965 15.9685 5.41625 15.9685C5.25576 16.0488 5.01503 15.9685 4.85455 15.808L1.72504 9.06754C1.6448 8.9873 1.56454 8.98731 1.56454 8.90707C0.601619 7.94414 0.039917 6.66024 0.039917 5.21585C0.039917 3.77146 0.601619 2.48755 1.56454 1.52463C2.52747 0.561702 3.81138 0 5.25577 0C6.70015 0 7.98406 0.561702 8.94699 1.52463C9.90991 2.48755 10.4716 3.77146 10.4716 5.21585C10.4716 6.66024 9.90991 7.94414 8.94699 8.90707C8.86674 8.90707 8.86673 8.98732 8.78649 8.98732Z" fill="white"/>
</svg>
