<svg width="14" height="14" viewBox="0 0 14 14" fill="none" xmlns="http://www.w3.org/2000/svg">
<path d="M6.99996 12.8333C3.77821 12.8333 1.16663 10.2217 1.16663 6.99996C1.16663 3.77821 3.77821 1.16663 6.99996 1.16663C10.2217 1.16663 12.8333 3.77821 12.8333 6.99996C12.8333 10.2217 10.2217 12.8333 6.99996 12.8333ZM6.99996 11.6666C8.23764 11.6666 9.42462 11.175 10.2998 10.2998C11.175 9.42462 11.6666 8.23764 11.6666 6.99996C11.6666 5.76228 11.175 4.5753 10.2998 3.70013C9.42462 2.82496 8.23764 2.33329 6.99996 2.33329C5.76228 2.33329 4.5753 2.82496 3.70013 3.70013C2.82496 4.5753 2.33329 5.76228 2.33329 6.99996C2.33329 8.23764 2.82496 9.42462 3.70013 10.2998C4.5753 11.175 5.76228 11.6666 6.99996 11.6666ZM6.41663 4.08329H7.58329V5.24996H6.41663V4.08329ZM6.41663 6.41663H7.58329V9.91663H6.41663V6.41663Z" fill="#1A205C"/>
</svg>
