<svg width="17" height="16" viewBox="0 0 17 16" fill="none" xmlns="http://www.w3.org/2000/svg">
<path d="M6.99471 15.0564L10.3588 11.6923L4.04086 9.80514C3.7947 9.72309 3.71266 9.55898 3.71266 9.31282L4.287 6.52309L1.41521 9.39488L6.99471 15.0564ZM9.70239 10.6256L5.18957 6.11283L4.61523 9.06668L9.70239 10.6256ZM13.9691 5.12821L12.0819 7.0154L13.3947 8.3282C13.4767 8.41025 13.4767 8.41026 13.4767 8.49231L15.3639 6.60514L13.9691 5.12821ZM11.5075 7.58974L9.62033 9.47694L11.0973 10.9538L12.9844 9.06668C12.9024 9.06668 12.9024 8.98462 12.8203 8.98462L11.5075 7.58974ZM9.04599 8.82051L10.9332 6.93334L9.45624 5.45641L7.56905 7.3436L9.04599 8.82051ZM11.5075 6.35898L13.3947 4.47181L11.9178 2.99487L10.0306 4.88206L11.5075 6.35898ZM6.99471 6.76923L8.88187 4.88206L7.40496 3.40513L5.51777 5.29232L6.99471 6.76923ZM9.45624 4.30769L11.3434 2.42053L9.8665 0.943589L7.97931 2.83078L9.45624 4.30769ZM16.3485 6.85129L7.32291 15.8769C7.1588 16.041 6.91264 16.041 6.74854 15.8769L0.594696 9.72308C0.430593 9.55898 0.430593 9.31281 0.594696 9.14871L4.69726 5.04615L7.15879 2.58461L9.62033 0.123077C9.78443 -0.0410256 10.0306 -0.0410256 10.1947 0.123077L14.2973 4.22564L16.3485 6.27692C16.4306 6.44102 16.4306 6.68719 16.3485 6.85129Z" fill="white"/>
</svg>
